<svg xmlns="http://www.w3.org/2000/svg"  viewBox="0 0 100 100" width="45px" height="45px" clip-rule="evenodd"><path fill="#fff" d="M19.8 55.7A.9.9 0 1 0 19.8 57.5.9.9 0 1 0 19.8 55.7zM78.8 31A.7.7 0 1 0 78.8 32.4.7.7 0 1 0 78.8 31z"/><path fill="#f1bc19" d="M76.2 11.7A.9.9 0 1 0 76.2 13.5.9.9 0 1 0 76.2 11.7zM20.3 63.300000000000004A.9.9 0 1 0 20.3 65.10000000000001.9.9 0 1 0 20.3 63.300000000000004z"/><path fill="#e4e4f9" d="M49.1 12.5A37.4 37.4 0 1 0 49.1 87.3A37.4 37.4 0 1 0 49.1 12.5Z"/><path fill="#f1bc19" d="M81.6 10.8A4 4 0 1 0 81.6 18.8A4 4 0 1 0 81.6 10.8Z"/><path fill="#ee3e54" d="M85.6 22A1.9 1.9 0 1 0 85.6 25.799999999999997A1.9 1.9 0 1 0 85.6 22Z"/><path fill="#fbcd59" d="M76.7 74.39999999999999A1.9 1.9 0 1 0 76.7 78.2 1.9 1.9 0 1 0 76.7 74.39999999999999zM13.5 59.4A4 4 0 1 0 13.5 67.4 4 4 0 1 0 13.5 59.4z"/><path fill="#ee3e54" d="M23.7 85.6A1.9 1.9 0 1 0 23.7 89.4A1.9 1.9 0 1 0 23.7 85.6Z"/><path fill="#fff" d="M75.3 28.4A1.8 1.8 0 1 0 75.3 32 1.8 1.8 0 1 0 75.3 28.4zM17.2 48.7A2.5 2.5 0 1 0 17.2 53.7 2.5 2.5 0 1 0 17.2 48.7z"/><path fill="#e5ac80" d="M67.6,71.1c-0.4-2.2-1.3-3.4-3.3-4L63.9,67l-0.6-0.2c-1.3-0.5-8.7-3.3-8.7-3.3 c-0.6-0.1-1-0.5-1.2-1.1c-0.2-1-0.3-1.9-0.2-2.9c-1.6,0.6-3.3,1-5,1.4c-1.9,0.2-6-2.3-6-2.3s-0.1,3-0.2,3.7 c-0.2,0.6-0.7,1-1.3,1.1L33.5,66c-0.8,0.2-1.5,0.5-2.2,0.9c-1.5,1-2.6,2.4-3.2,4.2c0,0-0.5,3.3-0.5,3.4c0,0.5-0.1,1-0.1,1.5 c7.8,5.3,14,6.7,24.7,6.3c4.9-0.2,12.1-2.6,15.9-4.5C67.9,73.6,67.6,71.1,67.6,71.1z"/><path fill="#8889b9" d="M64,66.9l-0.3-0.1l-0.6-0.2c-0.8-0.3-3.9-1.5-6.2-2.3h-0.1c-2.5,1.3-6.1,3.2-9.4,3.2 s-6.6-1.8-9.4-3.3l-0.3,0.1l-4.4,1.6c-0.8,0.2-1.5,0.5-2.2,0.9c-1.5,1-2.6,2.5-3.2,4.2c0,0-0.5,3.3-0.5,3.4c0,0.5-0.1,5.4-0.1,6 c7.8,5.3,14,6.7,24.7,6.3c4.9-0.2,12.1-2.6,15.9-4.5C67.7,77.9,67.4,71,67.4,71C67,68.8,66.1,67.6,64,66.9z"/><path fill="#a1a1ca" fill-rule="evenodd" d="M55.5,63.9c-0.1,0-0.1,0-0.2-0.1c-4.3,4.5-11.5,4.7-16,0.4 c-0.1-0.1-0.1-0.1-0.2-0.2c-0.5,0.3-1,0.5-1.5,0.6c4.1,4.4,12.7,7.6,19-0.4C56.3,64.1,55.9,63.9,55.5,63.9z" clip-rule="evenodd"/><path fill="#6a6c99" d="M34.4 84.8c-.2 0-.3-.1-.3-.3v-4c0-.2.1-.3.3-.3s.3.1.3.3v4C34.6 84.7 34.5 84.8 34.4 84.8zM60.7 85.5c-.2 0-.3-.1-.3-.3v-4.6c0-.2.1-.3.3-.3s.3.1.3.3v4.6C61 85.4 60.8 85.5 60.7 85.5z"/><path fill="#edbc94" d="M59.9,44.8h-0.4c-1,0-1.2,0.3-1.2-0.3c0.1-1-0.1-5.3-0.1-5.5c0-4.4-4.7-8-10.5-8.2h-0.2 C41.7,31,37.1,34.6,37.1,39c0,0.2-0.2,4.5-0.1,5.5c0,0.6-0.2,0.2-1.2,0.3h-0.4c-1,0-1.8,0.6-2.1,1.6c0.1,0.1,0.6,3.7,1.4,5.1 c0.4,0.8,1.1,0.9,1.8,1.4c0.3,0.2,0.5,0.6,0.6,1c0.5,1.6,1.4,2.9,2.7,4c0.6,0.6,4.5,4.7,7.9,4.5s7.3-3.9,7.9-4.5 c1.2-1.1,2.2-2.4,2.7-4c0.1-0.4,0.3-0.8,0.6-1c0.7-0.5,1.4-0.6,1.8-1.4c0.8-1.4,1.3-5,1.4-5.1C61.7,45.4,60.8,44.8,59.9,44.8z"/><path fill="#512c2b" d="M47.7 52.6c.7 0 1.3-.3 1.8-.8 0 0 0-.1 0-.2 0 0 0 0 0 0l0 0c0 0-.1 0-.2 0 0 0 0 0 0 0-.4.4-1 .7-1.6.6-.6 0-1.2-.2-1.6-.6 0 0-.1 0-.1 0 0 0 0 0-.1 0 0 0 0 .1 0 .2 0 0 0 0 0 0C46.4 52.3 47 52.6 47.7 52.6zM45.5 42.4l.4-.8c-1.9-.4-3.8-.4-5.7.2l.5.8C42.4 42.1 44 42 45.5 42.4zM54.7 42.4l.4-.8c-1.9-.4-3.8-.4-5.7.2l.5.8C51.5 42.1 53.2 42 54.7 42.4zM42.9 43.6c-.4 0-.8.3-1 .7.1 0 .1 0 .2 0 .4 0 .7.3.7.7 0 .4-.3.7-.7.7-.1 0-.2 0-.3-.1.1.6.6 1.1 1.2 1.2.9-.2 1.4-1.1 1.2-2C44 44.2 43.5 43.8 42.9 43.6L42.9 43.6zM52.5 43.6c-.4 0-.7.2-.9.5.1 0 .2 0 .2 0 .4 0 .7.3.7.7 0 .4-.3.7-.7.7-.2 0-.4-.1-.5-.3.2.7.9 1.1 1.6.9.7-.2 1.1-.9.9-1.6C53.6 44 53.1 43.6 52.5 43.6z"/><path fill="#472b29" d="M48.8,87.4c-8.9,0-14.6-1.8-21.5-6.4c-0.1-0.1-0.2-0.2-0.2-0.4c0-0.1,0-0.4,0-0.9 c0-2.2,0.1-6.8,0.6-8.6c0.4-1.9,1.6-3.5,3.4-4.4c0.7-0.4,1.5-0.7,2.3-0.9l7.1-2.6c0.5-0.1,0.9-0.4,1-0.9c0-0.3,0.1-1.2,0.1-2.1 c-0.7-0.5-1.5-1.1-2.1-1.6c-1.3-1.2-2.3-2.7-2.8-4.3c0-0.4-0.2-0.7-0.4-0.9c-0.2-0.2-0.4-0.3-0.6-0.4c-0.5-0.3-0.9-0.5-1.3-1.2 c-0.8-1.7-1.3-3.5-1.4-5.4c0,0,0-0.1,0-0.1c0.3-1.1,1.3-1.9,2.5-1.9h0.4c0.3,0,0.6,0,0.8,0.1c-0.1-1,0-3.8,0.1-5 c0-0.3,0-0.5,0-0.5c0-4.7,4.8-8.6,10.9-8.8h0.2c6.1,0.2,10.9,4.1,10.9,8.8c0,0,0,0.2,0,0.5c0,1.2,0.1,4.1,0.1,5 c0.2,0,0.4-0.1,0.8-0.1h0.4c1.2,0,2.2,0.8,2.5,1.9c0,0,0,0.1,0,0.1c-0.2,1.9-0.7,3.7-1.5,5.4c-0.4,0.7-0.8,0.9-1.3,1.2 c-0.2,0.1-0.4,0.2-0.6,0.4c-0.2,0.2-0.4,0.5-0.4,0.8c-0.5,1.8-1.5,3.3-2.8,4.4c-0.7,0.6-1.5,1.2-2.3,1.8c0,0.7,0.1,1.3,0.3,2 c0.2,0.4,0.5,0.7,1,0.8c0.3,0.1,7.5,2.8,8.7,3.3l0.9,0.4c2,0.6,3.1,1.9,3.6,4.3c0,0,0,0,0,0.1c0,0,0.3,6.9,0.5,11.2 c0,0.2-0.1,0.3-0.2,0.4c-4,2-11.3,4.4-16.1,4.6C51,87.4,49.9,87.4,48.8,87.4z M27.9,80.5c7.4,5,13.6,6.5,24.3,6.1 c4.5-0.2,11.5-2.4,15.5-4.4c-0.2-4.1-0.5-10.4-0.5-10.9c-0.4-2.1-1.3-3.1-3.1-3.7l-1-0.4c-1.2-0.5-8.6-3.2-8.7-3.3 c-0.6-0.2-1.2-0.7-1.5-1.3c-0.3-0.8-0.3-1.7-0.3-2.5c0-0.1,0.1-0.2,0.2-0.3c0.8-0.6,1.6-1.2,2.4-1.8c1.2-1.1,2.1-2.4,2.6-4 c0-0.4,0.3-0.9,0.7-1.2c0.3-0.2,0.5-0.3,0.7-0.5c0.4-0.2,0.7-0.4,1-0.9c0.7-1.6,1.2-3.3,1.4-5c-0.2-0.7-0.9-1.2-1.7-1.2h-0.4 c-0.3,0-0.5,0-0.7,0.1c-0.3,0-0.5,0.1-0.7-0.1c-0.2-0.2-0.2-0.5-0.2-0.7c0.1-0.8,0-3.9-0.1-5.1c0-0.3,0-0.5,0-0.5 c0-4.3-4.4-7.8-10.1-8h-0.2c-5.6,0.2-10.1,3.7-10.1,8c0,0,0,0.2,0,0.5c0,1.2-0.1,4.2-0.1,5.1c0,0.3,0,0.5-0.2,0.6 c-0.2,0.2-0.4,0.1-0.7,0.1c-0.2,0-0.4-0.1-0.7-0.1h-0.4c-0.8,0-1.4,0.5-1.7,1.2c0.2,1.7,0.6,3.4,1.3,5c0.2,0.4,0.6,0.6,1,0.8 c0.2,0.1,0.5,0.3,0.7,0.5c0.4,0.3,0.7,0.8,0.7,1.3c0.5,1.5,1.3,2.8,2.5,3.9c0.7,0.6,1.5,1.2,2.2,1.7c0.1,0.1,0.2,0.2,0.2,0.3 c0,1-0.1,2.1-0.2,2.5c-0.3,0.8-0.9,1.3-1.6,1.5l-7.1,2.6c-0.8,0.2-1.5,0.5-2.1,0.9c-1.6,0.8-2.6,2.2-3,3.9 c-0.5,1.7-0.5,6.4-0.6,8.4C27.9,80.1,27.9,80.3,27.9,80.5z"/><path fill="#d3a47d" d="M59.9 49.5l-.6-.1.2-1.8-1 .4-.2-.6 1.5-.6c.1 0 .2 0 .3 0 .1.1.1.2.1.3L59.9 49.5zM35.7 49.1l-.3-2.3c0-.1 0-.2.1-.3.1-.1.2-.1.3 0l1.5.6-.2.6-1-.4.2 1.8L35.7 49.1z"/><path fill="#472b29" d="M37 53.6C37 53.6 37 53.6 37 53.6c-.1 0-.2-.1-.2-.2l.2-8.7c0-.1.1-.2.2-.2 0 0 0 0 0 0 .1 0 .2.1.2.2l-.2 8.7C37.2 53.5 37.1 53.6 37 53.6zM58.4 53.6c-.1 0-.2-.1-.2-.2l-.2-8.7c0-.1.1-.2.2-.2 0 0 0 0 0 0 .1 0 .2.1.2.2l.2 8.7C58.6 53.5 58.5 53.6 58.4 53.6 58.4 53.6 58.4 53.6 58.4 53.6zM54.2 59c-1.8 1.2-5.2 1.9-5.8.8-.5-.8-1.2-.8-1.6 0-.7 1.2-4.3 0-6.2-1.4-.5 0 0 .2-.4.5 2.4 2.1 7.2 4.9 7.4 4.8l0 0c2.4-1.2 4.7-2.7 6.9-4.4C54 59 54.8 59 54.2 59z"/><path fill="#ee3e54" d="M46.3 43.7c-2-1.7-9.5-.5-9.5-.5.1.4.3.8.4 1.2.5 0 .6.9.6 1.3.3 1.6 1.8 2.7 4.9 2.7s3.8-1.7 4-2.7C46.8 44.9 46.7 44.2 46.3 43.7zM46 45.6c-.2 1.4-1.4 2.2-3.3 2.3h-.6c-3.1 0-3.6-1.9-3.7-3.2 0-.7.7-1.3 1.7-1.4.6 0 1.2 0 2 0 2.3 0 3.3.4 3.6.7C45.9 44.5 46.1 45.1 46 45.6zM48.5 45.5c.1 1 .9 2.6 4 2.7s4.6-1.1 4.9-2.7c0-.3.1-1.2.6-1.3.1-.4.2-.8.4-1.2 0 0-7.5-1.2-9.5.5C48.6 44.2 48.4 44.9 48.5 45.5zM49.7 44.1c.3-.3 1.3-.7 3.6-.7.7 0 1.4 0 2 0 1 .1 1.7.7 1.7 1.4-.1 1.2-.6 3.2-3.7 3.2h-.6c-2-.1-3.2-.9-3.3-2.3C49.2 45 49.4 44.5 49.7 44.1z"/><path fill="#ee3e54" d="M49,45c-0.4-0.2-0.9-0.3-1.4-0.3c-0.4,0-0.9,0.1-1.3,0.3l-0.4-0.8h3.5L49,45z"/><path fill="#6d1b18" d="M44.2,55c0,0.2-0.1,0.3-0.1,0.5c0,1.4,1.5,2.5,3.4,2.5s3.4-1.1,3.4-2.5c0-0.2,0-0.3,0-0.5H44.2z"/><path fill="#ee3e54" d="M49.4,57.6c-1.1-0.8-2.6-0.8-3.6,0C47,58.1,48.3,58.1,49.4,57.6z"/><path fill="#fdfcef" d="M45.2,55L45.2,55v0.4c0,0.4,0.5,0.7,1.1,0.7h2.6c0.6,0,1.1-0.3,1.1-0.7V55H45.2z"/><path fill="#472b29" d="M47.6 58.2c-2 0-3.6-1.2-3.6-2.7 0-.2 0-.4.1-.5 0-.1.1-.1.2-.1H51c.1 0 .2.1.2.2 0 .2.1.3.1.5C51.3 57 49.6 58.2 47.6 58.2zM44.4 55.2c0 .1 0 .2 0 .3 0 1.3 1.4 2.3 3.2 2.3 1.8 0 3.2-1 3.2-2.3 0-.1 0-.2 0-.3H44.4zM60 29.9c-.1-.5-.7-.5-1.3-.4-1.9.1-2.3-.5-6.2-2.5-3.3-1.8-7.2-1.6-10.3.5-12 2.5-5 17.1-5 17.1s0-7.7 3.7-10.1c6.2 3.8 12.1 4.3 15.7 2 1.4 2.9 1.4 8.1 1.4 8.1 1.7-3.1 2.1-6.8 1.1-10.3C58.6 33 60.2 31.6 60 29.9L60 29.9z"/><g><path fill="#fdfcee" d="M69.6 58.4A14.4 14.4 0 1 0 69.6 87.2A14.4 14.4 0 1 0 69.6 58.4Z"/><path fill="#472b29" d="M69.6,87.6c-8.2,0-14.8-6.6-14.8-14.8c0-8.2,6.6-14.8,14.8-14.8c8.2,0,14.8,6.6,14.8,14.8 C84.4,80.9,77.8,87.6,69.6,87.6z M69.6,58.7c-7.8,0-14.1,6.3-14.1,14.1s6.3,14.1,14.1,14.1s14.1-6.3,14.1-14.1 S77.3,58.7,69.6,58.7z"/></g><g><path fill="#93bc39" d="M69.6 60.9A11.9 11.9 0 1 0 69.6 84.7A11.9 11.9 0 1 0 69.6 60.9Z"/><path fill="#472b29" d="M69.6,85c-6.7,0-12.2-5.5-12.2-12.2c0-6.7,5.5-12.2,12.2-12.2c6.7,0,12.2,5.5,12.2,12.2 C81.8,79.5,76.3,85,69.6,85z M69.6,61.1c-6.4,0-11.7,5.2-11.7,11.7s5.2,11.7,11.7,11.7s11.7-5.2,11.7-11.7S76,61.1,69.6,61.1z"/></g><path fill="#c0d078" d="M69.6,62.6c5.1,0,9.7,3.2,11.5,8 c-1.2-6.4-7.4-10.5-13.7-9.3c-4.7,0.9-8.4,4.6-9.3,9.3C59.9,65.8,64.4,62.6,69.6,62.6z" opacity=".79"/><path fill="#fdfcee" d="M67.9,78.6c-0.3,0-0.5-0.1-0.7-0.3l-3.8-3.9c-0.4-0.4-0.4-1,0-1.4c0.2-0.2,0.4-0.3,0.7-0.3 c0.3,0,0.5,0.1,0.7,0.3l3,3.2l6.4-7.1c0.2-0.2,0.5-0.3,0.7-0.3c0.6,0,1,0.4,1,1c0,0.3-0.1,0.5-0.3,0.7l-7.1,7.9 C68.4,78.5,68.1,78.7,67.9,78.6L67.9,78.6L67.9,78.6z"/><path fill="#472b29" d="M75,69.1c0.3,0,0.6,0.3,0.6,0.7c0,0.1,0,0.2-0.1,0.3L68.4,78c-0.1,0.1-0.3,0.2-0.4,0.2l0,0 c-0.2,0-0.3-0.1-0.4-0.2l-3.8-3.9c-0.2-0.2-0.2-0.6,0-0.9c0.2-0.2,0.6-0.2,0.9,0l0,0l3.3,3.4l6.7-7.4C74.7,69.2,74.9,69.1,75,69.1 M75,68.3L75,68.3c-0.4,0-0.7,0.2-1,0.4l-6.2,6.8l-2.8-2.9c-0.5-0.5-1.4-0.5-2,0c-0.5,0.5-0.5,1.3,0,1.9l3.8,3.9 c0.5,0.6,1.4,0.6,2,0c0,0,0,0,0,0l7.1-7.9c0.5-0.5,0.5-1.4,0-1.9c0,0,0,0-0.1-0.1C75.6,68.4,75.3,68.3,75,68.3L75,68.3z"/></svg>