<?xml version="1.0" encoding="UTF-8"?>
<svg xmlns="http://www.w3.org/2000/svg" xmlns:xlink="http://www.w3.org/1999/xlink" width="45px" height="45px" viewBox="0 0 45 45" version="1.1">
<g id="surface1">
<path style=" stroke:none;fill-rule:nonzero;fill:rgb(94.509804%,73.72549%,9.803922%);fill-opacity:1;" d="M 35.550781 6.300781 C 35.550781 6.546875 35.347656 6.75 35.097656 6.75 C 34.851562 6.75 34.652344 6.546875 34.652344 6.300781 C 34.652344 6.050781 34.851562 5.847656 35.097656 5.847656 C 35.347656 5.847656 35.550781 6.050781 35.550781 6.300781 Z M 35.550781 6.300781 "/>
<path style=" stroke:none;fill-rule:nonzero;fill:rgb(97.647059%,85.882353%,82.352941%);fill-opacity:1;" d="M 39.597656 22.5 C 39.597656 31.945312 31.945312 39.597656 22.5 39.597656 C 13.054688 39.597656 5.402344 31.945312 5.402344 22.5 C 5.402344 13.054688 13.054688 5.402344 22.5 5.402344 C 31.945312 5.402344 39.597656 13.054688 39.597656 22.5 Z M 39.597656 22.5 "/>
<path style=" stroke:none;fill-rule:nonzero;fill:rgb(94.509804%,73.72549%,9.803922%);fill-opacity:1;" d="M 39.597656 7.199219 C 39.597656 8.195312 38.792969 9 37.800781 9 C 36.804688 9 36 8.195312 36 7.199219 C 36 6.207031 36.804688 5.402344 37.800781 5.402344 C 38.792969 5.402344 39.597656 6.207031 39.597656 7.199219 Z M 39.597656 7.199219 "/>
<path style=" stroke:none;fill-rule:nonzero;fill:rgb(93.333333%,24.313725%,32.941176%);fill-opacity:1;" d="M 7.199219 11.699219 C 7.199219 12.195312 6.796875 12.597656 6.300781 12.597656 C 5.804688 12.597656 5.402344 12.195312 5.402344 11.699219 C 5.402344 11.203125 5.804688 10.800781 6.300781 10.800781 C 6.796875 10.800781 7.199219 11.203125 7.199219 11.699219 Z M 7.199219 11.699219 "/>
<path style=" stroke:none;fill-rule:nonzero;fill:rgb(98.431373%,80.392157%,34.901961%);fill-opacity:1;" d="M 36 34.652344 C 36 35.148438 35.597656 35.550781 35.097656 35.550781 C 34.601562 35.550781 34.199219 35.148438 34.199219 34.652344 C 34.199219 34.152344 34.601562 33.75 35.097656 33.75 C 35.597656 33.75 36 34.152344 36 34.652344 Z M 36 34.652344 "/>
<path style=" stroke:none;fill-rule:nonzero;fill:rgb(98.431373%,80.392157%,34.901961%);fill-opacity:1;" d="M 9.449219 35.097656 C 9.449219 36.09375 8.644531 36.902344 7.652344 36.902344 C 6.65625 36.902344 5.847656 36.09375 5.847656 35.097656 C 5.847656 34.105469 6.65625 33.300781 7.652344 33.300781 C 8.644531 33.300781 9.449219 34.105469 9.449219 35.097656 Z M 9.449219 35.097656 "/>
<path style=" stroke:none;fill-rule:nonzero;fill:rgb(93.333333%,24.313725%,32.941176%);fill-opacity:1;" d="M 11.699219 37.347656 C 11.699219 37.847656 11.296875 38.25 10.800781 38.25 C 10.304688 38.25 9.902344 37.847656 9.902344 37.347656 C 9.902344 36.851562 10.304688 36.449219 10.800781 36.449219 C 11.296875 36.449219 11.699219 36.851562 11.699219 37.347656 Z M 11.699219 37.347656 "/>
<path style=" stroke:none;fill-rule:nonzero;fill:rgb(100%,100%,100%);fill-opacity:1;" d="M 30.136719 35.332031 C 30.136719 35.949219 29.632812 36.449219 29.015625 36.449219 C 28.398438 36.449219 27.902344 35.949219 27.902344 35.332031 C 27.902344 34.714844 28.398438 34.214844 29.015625 34.214844 C 29.632812 34.214844 30.136719 34.714844 30.136719 35.332031 Z M 30.136719 35.332031 "/>
<path style=" stroke:none;fill-rule:nonzero;fill:rgb(100%,100%,100%);fill-opacity:1;" d="M 7.652344 21.597656 C 7.652344 21.847656 7.449219 22.050781 7.199219 22.050781 C 6.953125 22.050781 6.75 21.847656 6.75 21.597656 C 6.75 21.351562 6.953125 21.152344 7.199219 21.152344 C 7.449219 21.152344 7.652344 21.351562 7.652344 21.597656 Z M 7.652344 21.597656 "/>
<path style=" stroke:none;fill-rule:nonzero;fill:rgb(94.509804%,73.72549%,9.803922%);fill-opacity:1;" d="M 39.152344 13.949219 C 39.152344 14.199219 38.949219 14.402344 38.699219 14.402344 C 38.453125 14.402344 38.25 14.199219 38.25 13.949219 C 38.25 13.703125 38.453125 13.5 38.699219 13.5 C 38.949219 13.5 39.152344 13.703125 39.152344 13.949219 Z M 39.152344 13.949219 "/>
<path style=" stroke:none;fill-rule:nonzero;fill:rgb(100%,100%,100%);fill-opacity:1;" d="M 38.699219 20.25 C 38.699219 20.75 38.296875 21.152344 37.800781 21.152344 C 37.304688 21.152344 36.902344 20.75 36.902344 20.25 C 36.902344 19.75 37.304688 19.347656 37.800781 19.347656 C 38.296875 19.347656 38.699219 19.75 38.699219 20.25 Z M 38.699219 20.25 "/>
<path style=" stroke:none;fill-rule:nonzero;fill:rgb(47.058824%,62.745098%,81.176471%);fill-opacity:1;" d="M 14.625 33.210938 C 13.308594 33.210938 12.242188 32.140625 12.242188 30.824219 C 12.242188 29.507812 13.308594 28.441406 14.625 28.441406 L 30.824219 28.441406 C 32.140625 28.441406 33.210938 29.507812 33.210938 30.824219 C 33.210938 32.140625 32.140625 33.210938 30.824219 33.210938 Z M 14.625 33.210938 "/>
<path style=" stroke:none;fill-rule:nonzero;fill:rgb(27.843137%,16.862745%,16.078431%);fill-opacity:1;" d="M 30.824219 28.753906 C 31.964844 28.753906 32.894531 29.683594 32.894531 30.824219 C 32.894531 31.964844 31.964844 32.894531 30.824219 32.894531 L 14.625 32.894531 C 13.484375 32.894531 12.554688 31.964844 12.554688 30.824219 C 12.554688 29.683594 13.484375 28.753906 14.625 28.753906 L 30.824219 28.753906 M 30.824219 28.125 L 14.625 28.125 C 13.132812 28.125 11.925781 29.332031 11.925781 30.824219 C 11.925781 32.316406 13.132812 33.527344 14.625 33.527344 L 30.824219 33.527344 C 32.316406 33.527344 33.527344 32.316406 33.527344 30.824219 C 33.527344 29.332031 32.316406 28.125 30.824219 28.125 Z M 30.824219 28.125 "/>
<path style=" stroke:none;fill-rule:nonzero;fill:rgb(27.843137%,16.862745%,16.078431%);fill-opacity:1;" d="M 30.832031 31.277344 L 14.617188 31.277344 C 14.371094 31.277344 14.175781 31.074219 14.175781 30.832031 L 14.175781 30.820312 C 14.175781 30.574219 14.371094 30.375 14.617188 30.375 L 30.832031 30.375 C 31.074219 30.375 31.277344 30.574219 31.277344 30.820312 L 31.277344 30.832031 C 31.277344 31.074219 31.074219 31.277344 30.832031 31.277344 Z M 30.832031 31.277344 "/>
<path style=" stroke:none;fill-rule:nonzero;fill:rgb(27.843137%,16.862745%,16.078431%);fill-opacity:1;" d="M 30.832031 31.5 L 14.617188 31.5 C 14.25 31.5 13.949219 31.199219 13.949219 30.832031 C 13.949219 30.453125 14.25 30.152344 14.617188 30.152344 L 30.828125 30.152344 C 31.199219 30.152344 31.5 30.453125 31.5 30.820312 C 31.5 31.199219 31.199219 31.5 30.832031 31.5 Z M 14.617188 30.597656 C 14.496094 30.597656 14.402344 30.699219 14.402344 30.820312 C 14.402344 30.949219 14.496094 31.050781 14.617188 31.050781 L 30.828125 31.050781 C 30.949219 31.050781 31.050781 30.949219 31.050781 30.832031 C 31.050781 30.699219 30.949219 30.597656 30.832031 30.597656 Z M 14.617188 30.597656 "/>
<path style=" stroke:none;fill-rule:nonzero;fill:rgb(100%,100%,100%);fill-opacity:1;" d="M 28.925781 14.402344 L 27.351562 12.425781 L 25.777344 14.402344 L 24.203125 12.425781 L 22.628906 14.402344 L 21.050781 12.425781 L 19.476562 14.402344 L 17.902344 12.425781 L 16.328125 14.402344 L 15.074219 12.832031 L 15.074219 30.824219 L 30.375 30.824219 L 30.375 12.585938 Z M 28.925781 14.402344 "/>
<path style=" stroke:none;fill-rule:nonzero;fill:rgb(27.843137%,16.862745%,16.078431%);fill-opacity:1;" d="M 30.375 31.050781 L 15.074219 31.050781 C 14.949219 31.050781 14.847656 30.949219 14.847656 30.824219 L 14.847656 12.832031 C 14.847656 12.734375 14.910156 12.648438 15.003906 12.617188 C 15.089844 12.585938 15.191406 12.613281 15.25 12.691406 L 16.328125 14.039062 L 17.726562 12.285156 C 17.8125 12.175781 17.992188 12.175781 18.078125 12.285156 L 19.476562 14.039062 L 20.875 12.285156 C 20.960938 12.175781 21.140625 12.175781 21.226562 12.285156 L 22.628906 14.039062 L 24.023438 12.285156 C 24.109375 12.175781 24.292969 12.175781 24.375 12.285156 L 25.777344 14.039062 L 27.175781 12.285156 C 27.257812 12.175781 27.441406 12.175781 27.527344 12.285156 L 28.925781 14.039062 L 30.199219 12.445312 C 30.257812 12.367188 30.359375 12.339844 30.449219 12.371094 C 30.539062 12.402344 30.597656 12.488281 30.597656 12.585938 L 30.597656 30.824219 C 30.597656 30.949219 30.5 31.050781 30.375 31.050781 Z M 15.300781 30.597656 L 30.152344 30.597656 L 30.152344 13.226562 L 29.101562 14.542969 C 29.015625 14.648438 28.835938 14.648438 28.75 14.542969 L 27.351562 12.789062 L 25.953125 14.542969 C 25.867188 14.648438 25.6875 14.648438 25.601562 14.542969 L 24.203125 12.789062 L 22.804688 14.542969 C 22.71875 14.648438 22.539062 14.648438 22.453125 14.542969 L 21.050781 12.789062 L 19.65625 14.542969 C 19.570312 14.648438 19.386719 14.648438 19.304688 14.542969 L 17.902344 12.789062 L 16.503906 14.542969 C 16.421875 14.648438 16.238281 14.648438 16.152344 14.542969 L 15.300781 13.472656 Z M 15.300781 30.597656 "/>
<path style=" stroke:none;fill-rule:nonzero;fill:rgb(27.843137%,16.862745%,16.078431%);fill-opacity:1;" d="M 24.074219 17.550781 L 17.324219 17.550781 C 17.199219 17.550781 17.097656 17.449219 17.097656 17.324219 C 17.097656 17.199219 17.199219 17.097656 17.324219 17.097656 L 24.074219 17.097656 C 24.199219 17.097656 24.300781 17.199219 24.300781 17.324219 C 24.300781 17.449219 24.199219 17.550781 24.074219 17.550781 Z M 24.074219 17.550781 "/>
<path style=" stroke:none;fill-rule:nonzero;fill:rgb(27.843137%,16.862745%,16.078431%);fill-opacity:1;" d="M 28.574219 17.550781 L 25.425781 17.550781 C 25.300781 17.550781 25.199219 17.449219 25.199219 17.324219 C 25.199219 17.199219 25.300781 17.097656 25.425781 17.097656 L 28.574219 17.097656 C 28.699219 17.097656 28.800781 17.199219 28.800781 17.324219 C 28.800781 17.449219 28.699219 17.550781 28.574219 17.550781 Z M 28.574219 17.550781 "/>
<path style=" stroke:none;fill-rule:nonzero;fill:rgb(27.843137%,16.862745%,16.078431%);fill-opacity:1;" d="M 26.324219 23.402344 C 26.199219 23.402344 26.097656 23.300781 26.097656 23.175781 L 26.097656 22.277344 C 26.097656 22.152344 26.199219 22.050781 26.324219 22.050781 C 26.449219 22.050781 26.550781 22.152344 26.550781 22.277344 L 26.550781 23.175781 C 26.550781 23.300781 26.449219 23.402344 26.324219 23.402344 Z M 26.324219 23.402344 "/>
<path style=" stroke:none;fill-rule:nonzero;fill:rgb(27.843137%,16.862745%,16.078431%);fill-opacity:1;" d="M 26.324219 28.347656 C 26.199219 28.347656 26.097656 28.25 26.097656 28.125 L 26.097656 27.222656 C 26.097656 27.101562 26.199219 27 26.324219 27 C 26.449219 27 26.550781 27.101562 26.550781 27.222656 L 26.550781 28.125 C 26.550781 28.25 26.449219 28.347656 26.324219 28.347656 Z M 26.324219 28.347656 "/>
<path style=" stroke:none;fill-rule:nonzero;fill:rgb(27.843137%,16.862745%,16.078431%);fill-opacity:1;" d="M 22.722656 18.902344 L 19.574219 18.902344 C 19.449219 18.902344 19.347656 18.800781 19.347656 18.675781 C 19.347656 18.550781 19.449219 18.449219 19.574219 18.449219 L 22.722656 18.449219 C 22.847656 18.449219 22.949219 18.550781 22.949219 18.675781 C 22.949219 18.800781 22.847656 18.902344 22.722656 18.902344 Z M 22.722656 18.902344 "/>
<path style=" stroke:none;fill-rule:nonzero;fill:rgb(27.843137%,16.862745%,16.078431%);fill-opacity:1;" d="M 18.675781 18.902344 L 17.324219 18.902344 C 17.199219 18.902344 17.097656 18.800781 17.097656 18.675781 C 17.097656 18.550781 17.199219 18.449219 17.324219 18.449219 L 18.675781 18.449219 C 18.800781 18.449219 18.902344 18.550781 18.902344 18.675781 C 18.902344 18.800781 18.800781 18.902344 18.675781 18.902344 Z M 18.675781 18.902344 "/>
<path style=" stroke:none;fill-rule:nonzero;fill:rgb(27.843137%,16.862745%,16.078431%);fill-opacity:1;" d="M 22.722656 23.402344 L 17.324219 23.402344 C 17.199219 23.402344 17.097656 23.300781 17.097656 23.175781 C 17.097656 23.050781 17.199219 22.949219 17.324219 22.949219 L 22.722656 22.949219 C 22.847656 22.949219 22.949219 23.050781 22.949219 23.175781 C 22.949219 23.300781 22.847656 23.402344 22.722656 23.402344 Z M 22.722656 23.402344 "/>
<path style=" stroke:none;fill-rule:nonzero;fill:rgb(27.843137%,16.862745%,16.078431%);fill-opacity:1;" d="M 22.722656 24.75 L 17.324219 24.75 C 17.199219 24.75 17.097656 24.648438 17.097656 24.527344 C 17.097656 24.402344 17.199219 24.300781 17.324219 24.300781 L 22.722656 24.300781 C 22.847656 24.300781 22.949219 24.402344 22.949219 24.527344 C 22.949219 24.648438 22.847656 24.75 22.722656 24.75 Z M 22.722656 24.75 "/>
<path style=" stroke:none;fill-rule:nonzero;fill:rgb(27.843137%,16.862745%,16.078431%);fill-opacity:1;" d="M 22.722656 26.097656 L 17.324219 26.097656 C 17.199219 26.097656 17.097656 26 17.097656 25.875 C 17.097656 25.75 17.199219 25.652344 17.324219 25.652344 L 22.722656 25.652344 C 22.847656 25.652344 22.949219 25.75 22.949219 25.875 C 22.949219 26 22.847656 26.097656 22.722656 26.097656 Z M 22.722656 26.097656 "/>
<path style=" stroke:none;fill-rule:nonzero;fill:rgb(27.843137%,16.862745%,16.078431%);fill-opacity:1;" d="M 22.722656 27.449219 L 17.324219 27.449219 C 17.199219 27.449219 17.097656 27.347656 17.097656 27.222656 C 17.097656 27.101562 17.199219 27 17.324219 27 L 22.722656 27 C 22.847656 27 22.949219 27.101562 22.949219 27.222656 C 22.949219 27.347656 22.847656 27.449219 22.722656 27.449219 Z M 22.722656 27.449219 "/>
<path style=" stroke:none;fill-rule:nonzero;fill:rgb(27.843137%,16.862745%,16.078431%);fill-opacity:1;" d="M 26.988281 26.226562 C 26.988281 25.152344 25.015625 25.570312 25.015625 24.113281 C 25.015625 23.214844 25.769531 22.949219 26.417969 22.949219 C 26.8125 22.949219 27.519531 23.054688 27.519531 23.386719 C 27.519531 23.507812 27.4375 23.734375 27.253906 23.734375 C 27.089844 23.734375 26.933594 23.5 26.417969 23.5 C 25.972656 23.5 25.660156 23.671875 25.660156 24.054688 C 25.660156 24.953125 27.628906 24.546875 27.628906 26.160156 C 27.628906 27.027344 27.046875 27.449219 26.25 27.449219 C 25.460938 27.449219 24.90625 27.039062 24.90625 26.734375 C 24.90625 26.585938 25.035156 26.390625 25.1875 26.390625 C 25.40625 26.390625 25.550781 26.867188 26.222656 26.867188 C 26.660156 26.867188 26.988281 26.660156 26.988281 26.226562 Z M 26.988281 26.226562 "/>
</g>
</svg>
