<?xml version="1.0" encoding="UTF-8"?>
<svg xmlns="http://www.w3.org/2000/svg" xmlns:xlink="http://www.w3.org/1999/xlink" width="45px" height="45px" viewBox="0 0 45 45" version="1.1">
<g id="surface1">
<path style=" stroke:none;fill-rule:nonzero;fill:rgb(100%,100%,100%);fill-opacity:1;" d="M 36.359375 14.355469 C 36.1875 14.355469 36.046875 14.496094 36.046875 14.671875 C 36.046875 14.84375 36.1875 14.984375 36.359375 14.984375 C 36.535156 14.984375 36.675781 14.84375 36.675781 14.671875 C 36.675781 14.496094 36.535156 14.355469 36.359375 14.355469 Z M 36.359375 14.355469 "/>
<path style=" stroke:none;fill-rule:nonzero;fill:rgb(94.509804%,73.72549%,9.803922%);fill-opacity:1;" d="M 35.144531 5.671875 C 34.921875 5.671875 34.738281 5.851562 34.738281 6.074219 C 34.738281 6.296875 34.921875 6.480469 35.144531 6.480469 C 35.367188 6.480469 35.550781 6.296875 35.550781 6.074219 C 35.550781 5.851562 35.367188 5.671875 35.144531 5.671875 Z M 35.144531 5.671875 "/>
<path style=" stroke:none;fill-rule:nonzero;fill:rgb(98.823529%,87.843137%,63.529412%);fill-opacity:1;" d="M 22.90625 5.984375 C 13.585938 5.984375 6.03125 13.539062 6.03125 22.859375 C 6.03125 32.179688 13.585938 39.734375 22.90625 39.734375 C 32.226562 39.734375 39.78125 32.179688 39.78125 22.859375 C 39.78125 13.539062 32.226562 5.984375 22.90625 5.984375 Z M 22.90625 5.984375 "/>
<path style=" stroke:none;fill-rule:nonzero;fill:rgb(94.509804%,73.72549%,9.803922%);fill-opacity:1;" d="M 37.621094 5.21875 C 36.625 5.21875 35.820312 6.027344 35.820312 7.019531 C 35.820312 8.015625 36.625 8.820312 37.621094 8.820312 C 38.613281 8.820312 39.421875 8.015625 39.421875 7.019531 C 39.421875 6.027344 38.613281 5.21875 37.621094 5.21875 Z M 37.621094 5.21875 "/>
<path style=" stroke:none;fill-rule:nonzero;fill:rgb(93.333333%,24.313725%,32.941176%);fill-opacity:1;" d="M 6.03125 12.328125 C 5.558594 12.328125 5.175781 12.710938 5.175781 13.183594 C 5.175781 13.65625 5.558594 14.039062 6.03125 14.039062 C 6.503906 14.039062 6.886719 13.65625 6.886719 13.183594 C 6.886719 12.710938 6.503906 12.328125 6.03125 12.328125 Z M 6.03125 12.328125 "/>
<path style=" stroke:none;fill-rule:nonzero;fill:rgb(98.431373%,80.392157%,34.901961%);fill-opacity:1;" d="M 35.371094 33.929688 C 34.898438 33.929688 34.515625 34.3125 34.515625 34.785156 C 34.515625 35.257812 34.898438 35.640625 35.371094 35.640625 C 35.84375 35.640625 36.226562 35.257812 36.226562 34.785156 C 36.226562 34.3125 35.84375 33.929688 35.371094 33.929688 Z M 7.558594 33.34375 C 6.566406 33.34375 5.761719 34.152344 5.761719 35.144531 C 5.761719 36.140625 6.566406 36.945312 7.558594 36.945312 C 8.554688 36.945312 9.359375 36.140625 9.359375 35.144531 C 9.359375 34.152344 8.554688 33.34375 7.558594 33.34375 Z M 7.558594 33.34375 "/>
<path style=" stroke:none;fill-rule:nonzero;fill:rgb(93.333333%,24.313725%,32.941176%);fill-opacity:1;" d="M 11.023438 36.40625 C 10.554688 36.40625 10.171875 36.789062 10.171875 37.261719 C 10.171875 37.730469 10.554688 38.113281 11.023438 38.113281 C 11.496094 38.113281 11.878906 37.730469 11.878906 37.261719 C 11.878906 36.789062 11.496094 36.40625 11.023438 36.40625 Z M 11.023438 36.40625 "/>
<path style=" stroke:none;fill-rule:nonzero;fill:rgb(100%,100%,100%);fill-opacity:1;" d="M 30.238281 34.46875 C 29.59375 34.46875 29.070312 34.992188 29.070312 35.640625 C 29.070312 36.285156 29.59375 36.808594 30.238281 36.808594 C 30.886719 36.808594 31.410156 36.285156 31.410156 35.640625 C 31.410156 34.992188 30.886719 34.46875 30.238281 34.46875 Z M 7.246094 21.148438 C 7.019531 21.148438 6.839844 21.332031 6.839844 21.554688 C 6.839844 21.777344 7.019531 21.960938 7.246094 21.960938 C 7.46875 21.960938 7.648438 21.777344 7.648438 21.554688 C 7.648438 21.332031 7.46875 21.148438 7.246094 21.148438 Z M 7.246094 21.148438 "/>
<path style=" stroke:none;fill-rule:nonzero;fill:rgb(94.509804%,73.72549%,9.803922%);fill-opacity:1;" d="M 38.386719 13.636719 C 38.160156 13.636719 37.980469 13.816406 37.980469 14.039062 C 37.980469 14.265625 38.160156 14.445312 38.386719 14.445312 C 38.609375 14.445312 38.789062 14.265625 38.789062 14.039062 C 38.789062 13.816406 38.609375 13.636719 38.386719 13.636719 Z M 38.386719 13.636719 "/>
<path style=" stroke:none;fill-rule:nonzero;fill:rgb(100%,100%,100%);fill-opacity:1;" d="M 36.226562 29.070312 C 35.777344 29.070312 35.414062 29.433594 35.414062 29.878906 C 35.414062 30.328125 35.777344 30.691406 36.226562 30.691406 C 36.671875 30.691406 37.035156 30.328125 37.035156 29.878906 C 37.035156 29.433594 36.671875 29.070312 36.226562 29.070312 Z M 36.226562 29.070312 "/>
<path style=" stroke:none;fill-rule:nonzero;fill:rgb(92.54902%,47.45098%,35.294118%);fill-opacity:1;" d="M 35.011719 19.214844 L 14.761719 19.214844 C 13.90625 19.214844 13.183594 20.070312 13.183594 21.148438 L 13.183594 21.734375 C 13.140625 22.5 13.546875 23.175781 14.21875 23.535156 L 15.433594 30.285156 C 15.703125 31.320312 15.886719 32.175781 16.425781 32.175781 L 33.300781 32.175781 C 33.839844 32.175781 34.15625 31.273438 34.289062 30.285156 L 35.460938 23.535156 C 36.136719 23.175781 36.539062 22.5 36.496094 21.734375 L 36.496094 21.148438 C 36.585938 20.113281 35.863281 19.214844 35.011719 19.214844 Z M 35.011719 19.214844 "/>
<path style=" stroke:none;fill-rule:nonzero;fill:rgb(27.843137%,16.862745%,16.078431%);fill-opacity:1;" d="M 33.34375 32.398438 L 16.46875 32.398438 C 15.75 32.398438 15.523438 31.5 15.253906 30.421875 L 15.210938 30.328125 L 13.996094 23.671875 C 13.320312 23.265625 12.914062 22.5 12.914062 21.734375 L 12.914062 21.148438 C 12.914062 19.980469 13.726562 18.988281 14.714844 18.988281 L 34.964844 18.988281 C 35.953125 18.988281 36.765625 19.933594 36.765625 21.148438 L 36.765625 21.734375 C 36.808594 22.546875 36.40625 23.265625 35.683594 23.671875 L 34.515625 30.328125 C 34.378906 31.726562 33.976562 32.398438 33.34375 32.398438 Z M 14.761719 19.441406 C 14.039062 19.441406 13.410156 20.203125 13.410156 21.148438 L 13.410156 21.734375 C 13.363281 22.410156 13.726562 23.039062 14.308594 23.355469 C 14.355469 23.398438 14.398438 23.445312 14.445312 23.535156 L 15.703125 30.375 C 15.929688 31.230469 16.109375 31.996094 16.46875 31.996094 L 33.34375 31.996094 C 33.660156 31.996094 33.976562 31.363281 34.109375 30.285156 L 35.28125 23.535156 C 35.28125 23.445312 35.324219 23.398438 35.414062 23.355469 C 36 23.039062 36.359375 22.410156 36.316406 21.78125 L 36.316406 21.148438 C 36.316406 20.203125 35.730469 19.441406 34.964844 19.441406 Z M 14.761719 19.441406 "/>
<path style=" stroke:none;fill-rule:nonzero;fill:rgb(27.843137%,16.862745%,16.078431%);fill-opacity:1;" d="M 32.445312 19.261719 C 32.308594 19.261719 32.21875 19.171875 32.21875 19.035156 L 32.21875 13.679688 C 32.21875 12.421875 31.183594 11.386719 29.878906 11.386719 L 19.84375 11.386719 C 18.585938 11.386719 17.550781 12.421875 17.550781 13.726562 L 17.550781 19.078125 C 17.550781 19.214844 17.460938 19.304688 17.324219 19.304688 C 17.191406 19.304688 17.101562 19.171875 17.101562 19.035156 L 17.101562 13.679688 C 17.101562 12.148438 18.359375 10.933594 19.84375 10.933594 L 29.878906 10.933594 C 31.410156 10.933594 32.625 12.195312 32.625 13.679688 L 32.625 19.035156 C 32.671875 19.171875 32.535156 19.261719 32.445312 19.261719 Z M 32.445312 19.261719 "/>
<path style=" stroke:none;fill-rule:nonzero;fill:rgb(94.509804%,73.72549%,9.803922%);fill-opacity:1;" d="M 20.65625 10.394531 L 28.753906 10.394531 C 29.113281 10.394531 29.386719 10.664062 29.386719 11.023438 L 29.386719 11.25 C 29.386719 11.609375 29.113281 11.878906 28.753906 11.878906 L 20.65625 11.878906 C 20.296875 11.878906 20.023438 11.609375 20.023438 11.25 L 20.023438 11.070312 C 20.023438 10.710938 20.296875 10.394531 20.65625 10.394531 Z M 20.65625 10.394531 "/>
<path style=" stroke:none;fill-rule:nonzero;fill:rgb(27.843137%,16.862745%,16.078431%);fill-opacity:1;" d="M 28.753906 12.105469 L 20.65625 12.105469 C 20.203125 12.105469 19.800781 11.699219 19.800781 11.25 L 19.800781 11.070312 C 19.800781 10.621094 20.203125 10.214844 20.65625 10.214844 L 28.753906 10.214844 C 29.203125 10.214844 29.609375 10.621094 29.609375 11.070312 L 29.609375 11.25 C 29.609375 11.699219 29.203125 12.105469 28.753906 12.105469 Z M 20.65625 10.621094 C 20.429688 10.621094 20.25 10.800781 20.25 11.023438 L 20.25 11.25 C 20.25 11.476562 20.429688 11.65625 20.65625 11.65625 L 28.753906 11.65625 C 28.980469 11.65625 29.160156 11.476562 29.160156 11.25 L 29.160156 11.070312 C 29.160156 10.84375 28.980469 10.664062 28.753906 10.664062 L 20.65625 10.664062 Z M 33.886719 23.488281 L 32.308594 23.488281 C 32.21875 23.488281 32.175781 23.398438 32.175781 23.355469 C 32.175781 23.308594 32.265625 23.21875 32.308594 23.21875 L 33.886719 23.21875 C 33.976562 23.21875 34.019531 23.308594 34.019531 23.355469 C 34.019531 23.398438 33.976562 23.488281 33.886719 23.488281 Z M 31.09375 23.488281 L 30.691406 23.488281 C 30.601562 23.488281 30.554688 23.398438 30.554688 23.355469 C 30.554688 23.308594 30.644531 23.21875 30.691406 23.21875 L 31.09375 23.21875 C 31.183594 23.21875 31.230469 23.308594 31.230469 23.355469 C 31.230469 23.398438 31.183594 23.488281 31.09375 23.488281 Z M 29.566406 23.488281 L 13.816406 23.488281 C 13.726562 23.488281 13.636719 23.398438 13.636719 23.355469 C 13.636719 23.308594 13.726562 23.21875 13.816406 23.21875 L 29.519531 23.21875 C 29.609375 23.21875 29.65625 23.308594 29.65625 23.355469 C 29.65625 23.398438 29.609375 23.488281 29.566406 23.488281 Z M 29.566406 23.488281 "/>
<path style=" stroke:none;fill-rule:nonzero;fill:rgb(87.843137%,35.294118%,23.137255%);fill-opacity:1;" d="M 18.628906 24.929688 L 18.808594 24.929688 C 19.171875 24.929688 19.441406 25.199219 19.441406 25.558594 L 19.441406 29.925781 C 19.441406 30.285156 19.171875 30.554688 18.808594 30.554688 L 18.628906 30.554688 C 18.269531 30.554688 18 30.285156 18 29.925781 L 18 25.558594 C 18 25.199219 18.269531 24.929688 18.628906 24.929688 Z M 18.628906 24.929688 "/>
<path style=" stroke:none;fill-rule:nonzero;fill:rgb(27.843137%,16.862745%,16.078431%);fill-opacity:1;" d="M 18.808594 30.734375 L 18.628906 30.734375 C 18.179688 30.734375 17.820312 30.375 17.820312 29.96875 L 17.820312 25.605469 C 17.820312 25.15625 18.179688 24.796875 18.628906 24.796875 L 18.808594 24.796875 C 19.261719 24.796875 19.621094 25.15625 19.621094 25.605469 L 19.621094 29.96875 C 19.621094 30.375 19.261719 30.734375 18.808594 30.734375 Z M 18.628906 25.066406 C 18.359375 25.066406 18.179688 25.289062 18.179688 25.558594 L 18.179688 29.925781 C 18.179688 30.195312 18.40625 30.375 18.628906 30.375 L 18.808594 30.375 C 19.078125 30.375 19.304688 30.148438 19.304688 29.925781 L 19.304688 25.558594 C 19.304688 25.289062 19.078125 25.066406 18.808594 25.066406 Z M 18.628906 25.066406 "/>
<path style=" stroke:none;fill-rule:nonzero;fill:rgb(87.843137%,35.294118%,23.137255%);fill-opacity:1;" d="M 22.90625 24.929688 L 23.085938 24.929688 C 23.445312 24.929688 23.714844 25.199219 23.714844 25.558594 L 23.714844 29.925781 C 23.714844 30.285156 23.445312 30.554688 23.085938 30.554688 L 22.90625 30.554688 C 22.546875 30.554688 22.273438 30.285156 22.273438 29.925781 L 22.273438 25.558594 C 22.273438 25.199219 22.546875 24.929688 22.90625 24.929688 Z M 22.90625 24.929688 "/>
<path style=" stroke:none;fill-rule:nonzero;fill:rgb(27.843137%,16.862745%,16.078431%);fill-opacity:1;" d="M 23.085938 30.734375 L 22.90625 30.734375 C 22.453125 30.734375 22.09375 30.375 22.09375 29.96875 L 22.09375 25.605469 C 22.09375 25.15625 22.453125 24.796875 22.90625 24.796875 L 23.085938 24.796875 C 23.535156 24.796875 23.851562 25.15625 23.851562 25.605469 L 23.851562 29.96875 C 23.894531 30.375 23.535156 30.734375 23.085938 30.734375 Z M 22.90625 25.066406 C 22.636719 25.066406 22.453125 25.289062 22.453125 25.558594 L 22.453125 29.925781 C 22.453125 30.195312 22.679688 30.375 22.90625 30.375 L 23.085938 30.375 C 23.355469 30.375 23.535156 30.148438 23.535156 29.925781 L 23.535156 25.558594 C 23.535156 25.289062 23.308594 25.066406 23.085938 25.066406 Z M 22.90625 25.066406 "/>
<path style=" stroke:none;fill-rule:nonzero;fill:rgb(87.843137%,35.294118%,23.137255%);fill-opacity:1;" d="M 31.5 24.929688 L 31.679688 24.929688 C 32.039062 24.929688 32.308594 25.199219 32.308594 25.558594 L 32.308594 29.925781 C 32.308594 30.285156 32.039062 30.554688 31.679688 30.554688 L 31.5 30.554688 C 31.140625 30.554688 30.871094 30.285156 30.871094 29.925781 L 30.871094 25.558594 C 30.871094 25.199219 31.140625 24.929688 31.5 24.929688 Z M 31.5 24.929688 "/>
<path style=" stroke:none;fill-rule:nonzero;fill:rgb(27.843137%,16.862745%,16.078431%);fill-opacity:1;" d="M 31.679688 30.734375 L 31.5 30.734375 C 31.050781 30.734375 30.691406 30.375 30.691406 29.96875 L 30.691406 25.605469 C 30.691406 25.15625 31.050781 24.796875 31.5 24.796875 L 31.679688 24.796875 C 32.128906 24.796875 32.445312 25.15625 32.445312 25.605469 L 32.445312 29.96875 C 32.445312 30.375 32.085938 30.734375 31.679688 30.734375 Z M 31.5 25.066406 C 31.230469 25.066406 31.003906 25.289062 31.003906 25.558594 L 31.003906 29.925781 C 31.003906 30.195312 31.230469 30.375 31.5 30.375 L 31.679688 30.375 C 31.949219 30.375 32.128906 30.148438 32.128906 29.925781 L 32.128906 25.558594 C 32.128906 25.289062 31.90625 25.066406 31.679688 25.066406 Z M 31.5 25.066406 "/>
<path style=" stroke:none;fill-rule:nonzero;fill:rgb(87.843137%,35.294118%,23.137255%);fill-opacity:1;" d="M 27.179688 24.929688 L 27.359375 24.929688 C 27.71875 24.929688 27.988281 25.199219 27.988281 25.558594 L 27.988281 29.925781 C 27.988281 30.285156 27.71875 30.554688 27.359375 30.554688 L 27.179688 30.554688 C 26.820312 30.554688 26.550781 30.285156 26.550781 29.925781 L 26.550781 25.558594 C 26.550781 25.199219 26.863281 24.929688 27.179688 24.929688 Z M 27.179688 24.929688 "/>
<path style=" stroke:none;fill-rule:nonzero;fill:rgb(27.843137%,16.862745%,16.078431%);fill-opacity:1;" d="M 27.359375 30.734375 L 27.179688 30.734375 C 26.730469 30.734375 26.371094 30.375 26.371094 29.96875 L 26.371094 25.605469 C 26.371094 25.15625 26.730469 24.796875 27.179688 24.796875 L 27.359375 24.796875 C 27.808594 24.796875 28.171875 25.15625 28.171875 25.605469 L 28.171875 29.96875 C 28.171875 30.375 27.808594 30.734375 27.359375 30.734375 Z M 27.179688 25.066406 C 26.910156 25.066406 26.683594 25.289062 26.683594 25.558594 L 26.683594 29.925781 C 26.683594 30.195312 26.910156 30.375 27.179688 30.375 L 27.359375 30.375 C 27.628906 30.375 27.855469 30.148438 27.855469 29.925781 L 27.855469 25.558594 C 27.855469 25.289062 27.628906 25.066406 27.359375 25.066406 Z M 27.179688 25.066406 "/>
<path style=" stroke:none;fill-rule:nonzero;fill:rgb(88.235294%,87.843137%,84.705882%);fill-opacity:1;" d="M 15.164062 20.835938 C 14.964844 20.835938 14.804688 20.996094 14.804688 21.195312 C 14.804688 21.394531 14.964844 21.554688 15.164062 21.554688 C 15.363281 21.554688 15.523438 21.394531 15.523438 21.195312 C 15.523438 20.996094 15.363281 20.835938 15.164062 20.835938 Z M 15.164062 20.835938 "/>
<path style=" stroke:none;fill-rule:nonzero;fill:rgb(27.843137%,16.862745%,16.078431%);fill-opacity:1;" d="M 15.164062 21.644531 C 14.894531 21.644531 14.714844 21.464844 14.714844 21.195312 C 14.714844 20.925781 14.894531 20.746094 15.164062 20.746094 C 15.433594 20.746094 15.613281 20.925781 15.613281 21.195312 C 15.613281 21.464844 15.390625 21.644531 15.164062 21.644531 Z M 15.164062 20.925781 C 15.03125 20.925781 14.894531 21.058594 14.894531 21.195312 C 14.894531 21.328125 15.03125 21.464844 15.164062 21.464844 C 15.300781 21.464844 15.433594 21.328125 15.433594 21.195312 C 15.433594 21.058594 15.300781 20.925781 15.164062 20.925781 Z M 15.164062 20.925781 "/>
<path style=" stroke:none;fill-rule:nonzero;fill:rgb(88.235294%,87.843137%,84.705882%);fill-opacity:1;" d="M 34.558594 20.835938 C 34.359375 20.835938 34.199219 20.996094 34.199219 21.195312 C 34.199219 21.394531 34.359375 21.554688 34.558594 21.554688 C 34.757812 21.554688 34.921875 21.394531 34.921875 21.195312 C 34.921875 20.996094 34.757812 20.835938 34.558594 20.835938 Z M 34.558594 20.835938 "/>
<path style=" stroke:none;fill-rule:nonzero;fill:rgb(27.843137%,16.862745%,16.078431%);fill-opacity:1;" d="M 34.558594 21.644531 C 34.289062 21.644531 34.109375 21.464844 34.109375 21.195312 C 34.109375 20.925781 34.289062 20.746094 34.558594 20.746094 C 34.828125 20.746094 35.011719 20.925781 35.011719 21.195312 C 35.054688 21.464844 34.828125 21.644531 34.558594 21.644531 Z M 34.558594 20.925781 C 34.425781 20.925781 34.289062 21.058594 34.289062 21.195312 C 34.289062 21.328125 34.425781 21.464844 34.558594 21.464844 C 34.695312 21.464844 34.828125 21.328125 34.828125 21.195312 C 34.875 21.058594 34.738281 20.925781 34.558594 20.925781 Z M 34.558594 20.925781 "/>
<path style=" stroke:none;fill-rule:nonzero;fill:rgb(89.803922%,67.45098%,50.196078%);fill-opacity:1;" d="M 20.160156 28.84375 C 20.113281 28.351562 19.753906 27.898438 19.261719 27.765625 L 19.171875 27.71875 L 19.035156 27.675781 C 18.71875 27.539062 16.738281 26.820312 16.738281 26.820312 C 16.605469 26.773438 16.46875 26.683594 16.425781 26.550781 C 16.378906 26.28125 16.335938 26.054688 16.378906 25.785156 C 15.929688 25.921875 15.480469 26.054688 15.03125 26.144531 C 14.535156 26.191406 13.453125 25.558594 13.453125 25.558594 C 13.453125 25.558594 13.453125 26.371094 13.410156 26.550781 C 13.363281 26.683594 13.230469 26.820312 13.050781 26.863281 L 11.160156 27.539062 C 10.933594 27.585938 10.753906 27.675781 10.574219 27.765625 C 10.171875 28.035156 9.855469 28.394531 9.71875 28.890625 C 9.71875 28.890625 9.585938 29.789062 9.585938 29.789062 C 9.585938 29.925781 9.585938 30.058594 9.539062 30.195312 C 11.609375 31.589844 13.273438 31.996094 16.109375 31.859375 C 17.59375 31.726562 18.988281 31.320312 20.339844 30.644531 C 20.25 29.519531 20.160156 28.84375 20.160156 28.84375 Z M 20.160156 28.84375 "/>
<path style=" stroke:none;fill-rule:nonzero;fill:rgb(99.215686%,98.823529%,93.72549%);fill-opacity:1;" d="M 19.261719 27.855469 L 19.171875 27.808594 L 19.035156 27.765625 C 18.808594 27.675781 18 27.359375 17.414062 27.136719 L 17.371094 27.136719 C 16.695312 27.496094 15.75 27.988281 14.894531 27.988281 C 14.039062 27.988281 13.140625 27.539062 12.421875 27.136719 L 12.328125 27.136719 L 11.160156 27.539062 C 10.933594 27.585938 10.753906 27.675781 10.574219 27.765625 C 10.171875 28.035156 9.855469 28.394531 9.71875 28.890625 C 9.71875 28.890625 9.585938 29.789062 9.585938 29.789062 C 9.585938 29.925781 9.585938 31.230469 9.539062 31.363281 C 11.609375 32.761719 13.273438 33.164062 16.109375 33.03125 C 17.59375 32.894531 18.988281 32.488281 20.339844 31.816406 C 20.296875 30.691406 20.203125 28.84375 20.203125 28.84375 C 20.113281 28.394531 19.753906 27.988281 19.261719 27.855469 Z M 19.261719 27.855469 "/>
<path style=" stroke:none;fill-rule:nonzero;fill:rgb(88.235294%,87.843137%,84.705882%);fill-opacity:1;" d="M 11.339844 32.578125 C 11.25 32.578125 11.203125 32.535156 11.203125 32.445312 L 11.203125 31.410156 C 11.203125 31.320312 11.25 31.273438 11.339844 31.273438 C 11.429688 31.273438 11.476562 31.320312 11.476562 31.410156 L 11.476562 32.445312 C 11.476562 32.535156 11.429688 32.578125 11.339844 32.578125 Z M 18.359375 32.761719 C 18.269531 32.761719 18.226562 32.714844 18.226562 32.625 L 18.226562 31.410156 C 18.226562 31.320312 18.269531 31.273438 18.359375 31.273438 C 18.449219 31.273438 18.496094 31.320312 18.496094 31.410156 L 18.496094 32.625 C 18.449219 32.714844 18.40625 32.761719 18.359375 32.761719 Z M 18.359375 32.761719 "/>
<path style=" stroke:none;fill-rule:nonzero;fill:rgb(93.72549%,56.078431%,43.921569%);fill-opacity:1;" d="M 15.390625 29.476562 L 15.929688 33.121094 L 13.679688 33.121094 L 14.21875 29.476562 C 14.398438 29.160156 14.761719 29.023438 15.074219 29.203125 C 15.253906 29.25 15.34375 29.339844 15.390625 29.476562 Z M 15.390625 29.476562 "/>
<path style=" stroke:none;fill-rule:nonzero;fill:rgb(92.54902%,47.45098%,35.294118%);fill-opacity:1;" d="M 14.308594 28.933594 L 13.816406 27.808594 L 15.886719 27.808594 L 15.34375 28.933594 C 15.164062 29.203125 14.804688 29.339844 14.535156 29.160156 C 14.445312 29.113281 14.355469 29.023438 14.308594 28.933594 Z M 14.308594 28.933594 "/>
<path style=" stroke:none;fill-rule:nonzero;fill:rgb(91.764706%,91.764706%,90.980392%);fill-opacity:1;" d="M 12.960938 26.773438 L 12.328125 27.226562 L 13.679688 29.296875 L 14.941406 27.71875 C 14.941406 27.71875 13.050781 27.226562 12.960938 26.773438 Z M 12.960938 26.773438 "/>
<path style=" stroke:none;fill-rule:nonzero;fill:rgb(91.764706%,91.764706%,90.980392%);fill-opacity:1;" d="M 16.695312 26.773438 L 17.324219 27.226562 L 15.976562 29.25 L 14.714844 27.675781 C 14.714844 27.675781 16.605469 27.226562 16.695312 26.773438 Z M 16.695312 26.773438 "/>
<path style=" stroke:none;fill-rule:nonzero;fill:rgb(92.941176%,73.72549%,58.039216%);fill-opacity:1;" d="M 18.136719 21.871094 L 18.046875 21.871094 C 17.773438 21.871094 17.730469 21.960938 17.730469 21.78125 C 17.730469 21.511719 17.730469 20.386719 17.730469 20.339844 C 17.730469 19.171875 16.515625 18.226562 14.941406 18.179688 L 14.851562 18.179688 C 13.320312 18.226562 12.058594 19.171875 12.058594 20.339844 C 12.058594 20.386719 12.015625 21.511719 12.058594 21.78125 C 12.058594 21.914062 12.015625 21.824219 11.746094 21.871094 L 11.65625 21.871094 C 11.386719 21.871094 11.160156 22.050781 11.113281 22.273438 C 11.203125 22.726562 11.339844 23.175781 11.476562 23.625 C 11.609375 23.851562 11.789062 23.851562 11.96875 23.984375 C 12.058594 24.074219 12.105469 24.164062 12.105469 24.253906 C 12.238281 24.660156 12.464844 25.019531 12.824219 25.335938 C 13.003906 25.46875 13.996094 26.59375 14.894531 26.503906 C 15.796875 26.414062 16.828125 25.46875 16.964844 25.335938 C 17.28125 25.066406 17.503906 24.703125 17.640625 24.300781 C 17.640625 24.210938 17.683594 24.074219 17.773438 24.03125 C 17.953125 23.894531 18.136719 23.851562 18.269531 23.671875 C 18.449219 23.21875 18.539062 22.769531 18.628906 22.320312 C 18.628906 22.050781 18.40625 21.871094 18.136719 21.871094 Z M 18.136719 21.871094 "/>
<path style=" stroke:none;fill-rule:nonzero;fill:rgb(31.764706%,17.254902%,16.862745%);fill-opacity:1;" d="M 14.894531 23.984375 C 15.074219 23.984375 15.210938 23.894531 15.34375 23.761719 C 15.34375 23.761719 15.34375 23.714844 15.34375 23.714844 C 15.34375 23.714844 15.300781 23.714844 15.300781 23.714844 C 15.074219 23.941406 14.714844 23.941406 14.445312 23.714844 C 14.445312 23.714844 14.445312 23.761719 14.445312 23.761719 C 14.535156 23.894531 14.714844 23.941406 14.894531 23.984375 Z M 14.308594 21.238281 L 14.445312 21.015625 C 13.949219 20.925781 13.410156 20.925781 12.914062 21.058594 L 13.050781 21.285156 C 13.453125 21.148438 13.90625 21.148438 14.308594 21.238281 Z M 16.738281 21.238281 L 16.875 21.015625 C 16.378906 20.925781 15.839844 20.925781 15.390625 21.058594 L 15.523438 21.285156 C 15.929688 21.148438 16.335938 21.148438 16.738281 21.238281 Z M 13.636719 21.554688 C 13.5 21.554688 13.410156 21.644531 13.363281 21.734375 L 13.410156 21.734375 C 13.5 21.734375 13.589844 21.824219 13.589844 21.914062 C 13.589844 22.003906 13.5 22.09375 13.410156 22.09375 C 13.363281 22.09375 13.363281 22.09375 13.320312 22.050781 C 13.363281 22.230469 13.453125 22.320312 13.636719 22.363281 C 13.859375 22.320312 13.996094 22.140625 13.949219 21.960938 C 13.996094 21.78125 13.816406 21.601562 13.636719 21.554688 Z M 16.15625 21.554688 C 16.066406 21.554688 15.976562 21.601562 15.886719 21.691406 C 15.886719 21.691406 15.929688 21.691406 15.929688 21.691406 C 16.019531 21.691406 16.109375 21.78125 16.109375 21.871094 C 16.109375 21.960938 16.019531 22.050781 15.929688 22.050781 C 15.886719 22.050781 15.796875 22.003906 15.796875 21.960938 C 15.75 22.140625 15.839844 22.320312 16.019531 22.363281 C 16.199219 22.410156 16.378906 22.320312 16.425781 22.140625 C 16.425781 22.09375 16.425781 22.003906 16.425781 21.960938 C 16.515625 21.78125 16.378906 21.601562 16.15625 21.554688 Z M 16.289062 24.433594 C 16.335938 24.433594 16.335938 24.433594 16.289062 24.433594 C 16.289062 24.390625 16.289062 24.390625 16.289062 24.433594 C 15.839844 24.660156 15.390625 24.796875 14.894531 24.75 C 14.398438 24.75 13.949219 24.660156 13.546875 24.390625 C 13.546875 24.390625 13.546875 24.433594 13.546875 24.433594 C 14.398438 25.019531 15.480469 25.019531 16.289062 24.433594 Z M 16.289062 24.433594 "/>
<path style=" stroke:none;fill-rule:nonzero;fill:rgb(27.843137%,16.862745%,16.078431%);fill-opacity:1;" d="M 15.121094 33.253906 C 12.78125 33.253906 11.296875 32.761719 9.449219 31.546875 C 9.40625 31.5 9.359375 31.453125 9.359375 31.410156 C 9.359375 30.554688 9.40625 29.699219 9.539062 28.890625 C 9.628906 28.351562 9.988281 27.898438 10.484375 27.628906 C 10.664062 27.539062 10.890625 27.449219 11.113281 27.359375 L 13.003906 26.683594 C 13.140625 26.640625 13.183594 26.59375 13.230469 26.503906 C 13.230469 26.460938 13.273438 26.234375 13.273438 26.011719 C 13.09375 25.875 12.914062 25.738281 12.734375 25.605469 C 12.375 25.289062 12.105469 24.886719 11.96875 24.433594 C 11.96875 24.34375 11.925781 24.253906 11.878906 24.253906 C 11.835938 24.210938 11.789062 24.210938 11.746094 24.164062 C 11.609375 24.074219 11.476562 24.03125 11.386719 23.804688 C 11.160156 23.355469 11.023438 22.859375 10.980469 22.363281 C 10.980469 22.363281 10.980469 22.320312 10.980469 22.320312 C 11.070312 22.003906 11.386719 21.78125 11.699219 21.78125 L 11.789062 21.78125 C 11.835938 21.78125 11.878906 21.78125 11.925781 21.78125 C 11.925781 21.464844 11.925781 20.925781 11.925781 20.476562 L 11.925781 20.386719 C 11.925781 19.078125 13.230469 18.046875 14.894531 18 L 14.984375 18 C 16.648438 18.046875 17.953125 19.125 17.953125 20.386719 L 17.953125 21.78125 C 18 21.78125 18.046875 21.78125 18.089844 21.78125 L 18.179688 21.78125 C 18.539062 21.78125 18.808594 22.003906 18.898438 22.320312 C 18.898438 22.320312 18.898438 22.363281 18.898438 22.363281 C 18.855469 22.859375 18.71875 23.355469 18.496094 23.804688 C 18.40625 24.03125 18.226562 24.074219 18.089844 24.164062 C 18.046875 24.210938 18 24.210938 17.953125 24.253906 C 17.910156 24.300781 17.863281 24.34375 17.863281 24.433594 C 17.730469 24.929688 17.460938 25.335938 17.101562 25.648438 C 17.054688 25.695312 17.011719 25.695312 16.964844 25.738281 C 16.875 25.828125 16.695312 25.964844 16.515625 26.101562 C 16.515625 26.234375 16.515625 26.414062 16.558594 26.550781 C 16.605469 26.640625 16.648438 26.683594 16.785156 26.730469 C 16.875 26.773438 18.765625 27.449219 19.125 27.585938 L 19.351562 27.675781 C 19.890625 27.808594 20.339844 28.304688 20.386719 28.890625 C 20.386719 28.890625 20.476562 30.734375 20.566406 31.816406 C 20.566406 31.90625 20.519531 31.949219 20.476562 31.996094 C 19.125 32.671875 17.683594 33.074219 16.199219 33.210938 C 15.796875 33.253906 15.433594 33.253906 15.121094 33.253906 Z M 9.71875 31.320312 C 11.699219 32.625 13.320312 33.03125 16.066406 32.894531 C 17.460938 32.761719 18.808594 32.355469 20.113281 31.769531 C 20.023438 30.691406 19.980469 29.023438 19.933594 28.933594 C 19.890625 28.484375 19.574219 28.125 19.171875 28.035156 L 18.945312 27.898438 C 18.628906 27.765625 16.648438 27.046875 16.648438 27.046875 C 16.46875 27 16.289062 26.863281 16.199219 26.640625 C 16.109375 26.414062 16.109375 26.191406 16.109375 25.964844 C 16.109375 25.921875 16.15625 25.875 16.199219 25.828125 C 16.425781 25.695312 16.605469 25.515625 16.695312 25.425781 C 16.738281 25.378906 16.785156 25.335938 16.828125 25.335938 C 17.101562 25.066406 17.371094 24.703125 17.460938 24.34375 C 17.460938 24.210938 17.550781 24.074219 17.683594 23.984375 C 17.773438 23.941406 17.820312 23.894531 17.863281 23.851562 C 17.953125 23.804688 18.046875 23.761719 18.089844 23.625 C 18.269531 23.21875 18.40625 22.816406 18.449219 22.363281 C 18.40625 22.230469 18.226562 22.09375 18.089844 22.09375 L 18 22.09375 C 17.910156 22.09375 17.863281 22.09375 17.820312 22.09375 C 17.730469 22.09375 17.640625 22.140625 17.550781 22.050781 C 17.460938 21.960938 17.460938 21.871094 17.460938 21.824219 L 17.460938 20.339844 C 17.460938 19.261719 16.335938 18.359375 14.851562 18.316406 C 13.410156 18.359375 12.238281 19.261719 12.238281 20.339844 L 12.238281 20.429688 C 12.238281 21.195312 12.238281 21.644531 12.238281 21.824219 C 12.238281 21.871094 12.238281 22.003906 12.148438 22.050781 C 12.058594 22.09375 11.96875 22.09375 11.925781 22.09375 C 11.878906 22.09375 11.835938 22.09375 11.746094 22.09375 L 11.65625 22.09375 C 11.476562 22.09375 11.339844 22.183594 11.296875 22.363281 C 11.339844 22.816406 11.476562 23.265625 11.65625 23.671875 C 11.699219 23.761719 11.789062 23.804688 11.878906 23.851562 C 11.925781 23.894531 12.015625 23.941406 12.058594 23.984375 C 12.195312 24.074219 12.285156 24.253906 12.285156 24.390625 C 12.421875 24.75 12.644531 25.109375 12.914062 25.378906 C 13.09375 25.515625 13.273438 25.695312 13.5 25.828125 C 13.546875 25.875 13.589844 25.921875 13.589844 25.964844 C 13.589844 26.191406 13.546875 26.503906 13.546875 26.640625 C 13.453125 26.863281 13.273438 27.046875 13.050781 27.089844 L 11.203125 27.765625 C 10.980469 27.808594 10.800781 27.898438 10.664062 27.988281 C 10.261719 28.171875 9.988281 28.574219 9.898438 28.980469 C 9.808594 29.699219 9.71875 30.511719 9.71875 31.320312 Z M 9.71875 31.320312 "/>
<path style=" stroke:none;fill-rule:nonzero;fill:rgb(82.745098%,64.313725%,49.019608%);fill-opacity:1;" d="M 18.179688 23.128906 L 17.910156 23.085938 L 17.953125 22.726562 L 17.773438 22.816406 L 17.683594 22.589844 L 18.089844 22.410156 C 18.136719 22.410156 18.179688 22.410156 18.226562 22.410156 C 18.269531 22.453125 18.269531 22.5 18.269531 22.546875 Z M 11.65625 23.039062 L 11.566406 22.410156 C 11.566406 22.363281 11.566406 22.320312 11.609375 22.273438 C 11.65625 22.230469 11.699219 22.230469 11.746094 22.273438 L 12.148438 22.453125 L 12.058594 22.726562 L 11.878906 22.636719 L 11.925781 22.996094 Z M 11.65625 23.039062 "/>
<path style=" stroke:none;fill-rule:nonzero;fill:rgb(27.843137%,16.862745%,16.078431%);fill-opacity:1;" d="M 12.058594 24.253906 C 12.015625 24.253906 11.96875 24.210938 11.96875 24.164062 L 12.015625 21.871094 C 12.015625 21.824219 12.058594 21.78125 12.105469 21.78125 C 12.148438 21.78125 12.195312 21.824219 12.195312 21.871094 L 12.148438 24.164062 C 12.148438 24.210938 12.105469 24.253906 12.058594 24.253906 Z M 17.730469 24.253906 C 17.683594 24.253906 17.640625 24.210938 17.640625 24.164062 L 17.59375 21.871094 C 17.59375 21.824219 17.640625 21.78125 17.683594 21.78125 C 17.730469 21.78125 17.773438 21.824219 17.773438 21.871094 L 17.820312 24.164062 C 17.820312 24.210938 17.773438 24.253906 17.730469 24.253906 Z M 16.605469 25.648438 C 16.109375 25.964844 15.253906 26.144531 15.074219 25.875 C 14.941406 25.648438 14.761719 25.648438 14.625 25.875 C 14.445312 26.191406 13.453125 25.875 13.003906 25.515625 C 12.871094 25.515625 13.003906 25.558594 12.871094 25.648438 C 13.5 26.144531 14.128906 26.59375 14.851562 26.910156 C 15.480469 26.59375 16.109375 26.191406 16.648438 25.738281 C 16.558594 25.648438 16.785156 25.648438 16.605469 25.648438 Z M 16.605469 25.648438 "/>
<path style=" stroke:none;fill-rule:nonzero;fill:rgb(27.843137%,16.862745%,16.078431%);fill-opacity:1;" d="M 17.59375 18.898438 C 17.910156 18.945312 18.179688 19.261719 18.179688 19.574219 C 18.179688 20.160156 17.773438 22.636719 17.773438 22.636719 L 16.964844 20.070312 Z M 17.59375 18.898438 "/>
<path style=" stroke:none;fill-rule:nonzero;fill:rgb(27.843137%,16.862745%,16.078431%);fill-opacity:1;" d="M 14.535156 17.28125 L 14.21875 16.875 C 14.21875 16.875 17.683594 16.515625 17.683594 18.359375 C 17.730469 19.753906 16.785156 21.015625 15.433594 21.375 L 15.613281 20.699219 L 14.265625 21.421875 L 14.445312 21.015625 L 13.320312 21.421875 L 13.726562 20.519531 L 12.734375 20.878906 C 12.511719 21.464844 12.328125 22.050781 12.195312 22.679688 C 12.195312 22.679688 11.429688 20.070312 11.925781 19.84375 L 11.699219 19.710938 L 11.925781 19.261719 L 11.566406 19.125 L 11.878906 18.675781 L 11.746094 18.449219 L 12.421875 18.046875 L 12.058594 17.863281 C 12.78125 17.324219 13.679688 17.101562 14.535156 17.28125 Z M 14.535156 17.28125 "/>
<path style=" stroke:none;fill-rule:nonzero;fill:rgb(93.333333%,24.313725%,32.941176%);fill-opacity:1;" d="M 14.535156 21.691406 C 13.996094 21.058594 12.015625 21.511719 12.015625 21.511719 C 12.058594 21.644531 12.105469 21.78125 12.105469 21.960938 C 12.238281 21.960938 12.285156 22.320312 12.285156 22.410156 C 12.375 22.996094 12.734375 23.445312 13.589844 23.398438 C 14.175781 23.398438 14.625 22.949219 14.625 22.363281 C 14.671875 22.140625 14.625 21.914062 14.535156 21.691406 Z M 14.445312 22.410156 C 14.445312 22.90625 14.039062 23.265625 13.589844 23.265625 C 13.589844 23.265625 13.589844 23.265625 13.546875 23.265625 L 13.410156 23.265625 C 12.601562 23.265625 12.464844 22.546875 12.421875 22.09375 C 12.421875 21.824219 12.601562 21.601562 12.871094 21.601562 C 13.003906 21.601562 13.183594 21.601562 13.363281 21.601562 C 13.996094 21.601562 14.265625 21.734375 14.308594 21.871094 C 14.398438 22.003906 14.445312 22.230469 14.445312 22.410156 Z M 15.121094 22.363281 C 15.121094 22.949219 15.613281 23.398438 16.15625 23.398438 C 16.964844 23.398438 17.371094 22.996094 17.460938 22.410156 C 17.460938 22.273438 17.460938 21.960938 17.640625 21.960938 C 17.683594 21.824219 17.683594 21.691406 17.730469 21.511719 C 17.730469 21.511719 15.75 21.058594 15.210938 21.691406 C 15.121094 21.914062 15.074219 22.140625 15.121094 22.363281 Z M 15.433594 21.824219 C 15.523438 21.691406 15.796875 21.554688 16.378906 21.554688 C 16.558594 21.554688 16.738281 21.554688 16.921875 21.554688 C 17.191406 21.554688 17.371094 21.824219 17.371094 22.050781 C 17.371094 22.5 17.234375 23.21875 16.378906 23.21875 L 16.199219 23.21875 C 15.703125 23.21875 15.300781 22.859375 15.300781 22.363281 C 15.300781 22.363281 15.300781 22.363281 15.300781 22.320312 C 15.300781 22.183594 15.34375 22.003906 15.433594 21.824219 Z M 15.433594 21.824219 "/>
<path style=" stroke:none;fill-rule:nonzero;fill:rgb(93.333333%,24.313725%,32.941176%);fill-opacity:1;" d="M 15.210938 22.183594 C 15.121094 22.09375 14.984375 22.09375 14.851562 22.09375 C 14.714844 22.09375 14.625 22.140625 14.488281 22.183594 L 14.398438 21.914062 L 15.34375 21.914062 Z M 15.210938 22.183594 "/>
</g>
</svg>
