<svg xmlns="http://www.w3.org/2000/svg"  viewBox="0 0 40 40" width="37px" height="37px"><path fill="#dbf2ff" d="M4.511,39.5c0.263-6.11,5.315-11,11.489-11h8c6.174,0,11.227,4.89,11.489,11H4.511z"/><path fill="#8bb7f0" d="M8.5 31.5L8.5 39.5 31.5 39.5 31.5 31.5 27.5 29 27.5 35.5 12.5 35.5 12.5 29z"/><path fill="#4e7ab5" d="M8 31H9V40H8zM32 40L31 40 31 31 32 32zM27 29H28V35H27zM12 29H13V35H12zM12 35H28V36H12z"/><path fill="#4e7ab5" d="M24,29c5.729,0,10.448,4.401,10.955,10H5.045C5.552,33.401,10.271,29,16,29H24 M24,28h-8 C9.373,28,4,33.373,4,40h32C36,33.373,30.627,28,24,28L24,28z"/><path fill="#deb974" d="M20,31.5c-3.219,0-4.309-2.102-4.5-2.537V23.5h9v5.464C24.312,29.394,23.223,31.5,20,31.5z"/><path fill="#967a44" d="M24,24v4.854C23.759,29.343,22.738,31,20,31c-2.73,0-3.756-1.657-4-2.147V24H24 M25,23H15v6.062 c0,0,1.066,2.938,5,2.938s5-2.938,5-2.938V23L25,23z"/><path fill="#deb974" d="M27.143,20.214c-1.3,0-2.356-1.057-2.356-2.356s1.057-2.357,2.356-2.357 c1.963,0,2.357,0.537,2.357,1.404C29.5,18.318,28.335,20.214,27.143,20.214z M12.857,20.214c-1.192,0-2.357-1.896-2.357-3.31 c0-0.867,0.395-1.404,2.357-1.404c1.3,0,2.356,1.058,2.356,2.357S14.157,20.214,12.857,20.214z"/><path fill="#967a44" d="M27.143,16C29,16,29,16.481,29,16.905c0,1.234-1.041,2.81-1.857,2.81 c-1.024,0-1.857-0.833-1.857-1.857S26.119,16,27.143,16 M12.857,16c1.024,0,1.857,0.833,1.857,1.857s-0.833,1.857-1.857,1.857 c-0.816,0-1.857-1.575-1.857-2.81C11,16.481,11,16,12.857,16 M27.143,15c-1.578,0-2.857,1.279-2.857,2.857 s1.279,2.857,2.857,2.857c1.578,0,2.857-2.232,2.857-3.81C30,15.327,28.721,15,27.143,15L27.143,15z M12.857,15 C11.279,15,10,15.327,10,16.905c0,1.578,1.279,3.81,2.857,3.81s2.857-1.279,2.857-2.857S14.435,15,12.857,15L12.857,15z"/><path fill="#f5ce85" d="M20,27.5c-0.604,0-1.172-0.218-1.642-0.631l-0.091-0.079l-0.116-0.029 c-3.327-0.845-5.651-3.83-5.651-7.261v-9.299c0-1.826,1.486-3.312,3.312-3.312h8.375c1.826,0,3.313,1.486,3.313,3.312V19.5 c0,3.431-2.324,6.416-5.651,7.261l-0.116,0.029l-0.091,0.079C21.172,27.282,20.604,27.5,20,27.5z"/><path fill="#967a44" d="M24.187,7.389c1.551,0,2.813,1.262,2.813,2.813V19.5c0,3.201-2.169,5.987-5.275,6.776l-0.233,0.059 l-0.181,0.159C21.048,26.725,20.608,27,20,27s-1.048-0.275-1.311-0.506l-0.181-0.159l-0.233-0.059 C15.169,25.487,13,22.701,13,19.5v-9.298c0-1.551,1.262-2.813,2.813-2.813H24.187 M24.187,6.389h-8.375 C13.707,6.389,12,8.096,12,10.202V19.5c0,3.737,2.566,6.866,6.029,7.745C18.557,27.709,19.242,28,20,28s1.443-0.291,1.971-0.755 C25.434,26.366,28,23.237,28,19.5v-9.298C28,8.096,26.293,6.389,24.187,6.389L24.187,6.389z"/><path fill="#a6714e" d="M27.5,18.5V15c0-3.635-3.033-5.582-3.163-5.663l-0.398-0.25l-0.274,0.384 c-0.085,0.118-2.119,2.886-6.514,2.886c-1.15,0-4.65,0-4.65,3.644v2.5h-0.179C11.886,17.52,10.5,14.856,10.5,12 c0-5.271,3.618-9.499,9.001-9.499c3.839,0,4.992,2.585,5.039,2.695l0.131,0.303L25,5.5c1.671,0,4.5,2.146,4.5,6.5 c0,2.621-1.407,5.409-1.838,6.5H27.5z"/><path fill="#7a4f34" d="M13.001,19.001h-1.004l-0.292-0.646C11.151,17.159,10,14.671,10,12 c0-5.794,3.996-9.999,9.501-9.999C23.673,2.001,24.947,4.877,25,5l0.002,0C27.044,5,30,7.493,30,12 c0,2.315-1.011,4.666-1.615,6.071c-0.103,0.24-0.192,0.446-0.258,0.613L28.002,19H27v-4c0-3.372-2.806-5.163-2.928-5.239v0 c-0.093,0.128-2.288,3.095-6.921,3.095c-1.933,0-4.15,0.357-4.15,3.144V19.001z M19.501,3.001C14.575,3.001,11,6.786,11,12 c0,1.678,0.511,3.311,1.001,4.536v-0.535c0-2.75,1.732-4.144,5.15-4.144c4.127,0,6.029-2.569,6.108-2.678l0.547-0.766l0.797,0.501 C24.74,9,28,11.079,28,15v1.391c0.496-1.269,1-2.862,1-4.391c0-3.995-2.564-6-4-6l-0.658-0.002l-0.261-0.604 C24.038,5.294,23.017,3.001,19.501,3.001z"/><path fill="#8bb7f0" d="M21.199,1.572C21.106,0.965,20.607,0.5,20,0.5s-1.106,0.465-1.199,1.072	C14.336,2.055,10.5,5.318,10.5,9.918V12h19V9.918C29.5,5.318,25.664,2.055,21.199,1.572z"/><path fill="#ffc49c" d="M26.5 27.5H39.5V39.5H26.5z"/><path fill="#a16a4a" d="M39,28v11H27V28H39 M40,27H26v13h14V27L40,27z"/><g><path fill="#a16a4a" d="M35,31h-4c-0.276,0-0.5-0.224-0.5-0.5S30.724,30,31,30h4c0.276,0,0.5,0.224,0.5,0.5 S35.276,31,35,31z"/></g><g><path fill="#4e7ab5" d="M29.5,12.5h-19c-0.276,0-0.5-0.224-0.5-0.5V9.918c0-4.473,3.515-8.127,8.407-8.801 C18.661,0.452,19.281,0,20,0s1.339,0.452,1.593,1.117C26.485,1.791,30,5.445,30,9.918V12C30,12.276,29.776,12.5,29.5,12.5z M11,11.5h18V9.918c0-4.595-3.952-7.427-7.855-7.849c-0.226-0.024-0.406-0.197-0.44-0.421C20.646,1.272,20.351,1,20,1 s-0.646,0.272-0.704,0.647c-0.034,0.224-0.215,0.397-0.44,0.421C14.952,2.491,11,5.323,11,9.918V11.5z"/></g><path fill="#dbf2ff" d="M20,9.5c-5.7,0-8.312,1.649-9.5,2.5c0.95,1.48,1.826,2.5,2.487,2.5l0,0C13.436,14.5,14.3,13,20,13	s6.515,1.5,6.966,1.5c0.657,0,1.584-1.02,2.534-2.5C28.577,11.169,25.7,9.5,20,9.5z"/><g><path fill="#4e7ab5" d="M26.967,15c-0.242,0-0.427-0.115-0.662-0.26C25.706,14.369,24.306,13.5,20,13.5 c-4.311,0-5.74,0.871-6.351,1.243C13.413,14.886,13.226,15,12.987,15c-0.81,0-1.68-0.816-2.908-2.73 c-0.144-0.224-0.087-0.521,0.129-0.676C11.104,10.952,13.827,9,20,9c6.579,0,9.347,2.189,9.834,2.628 c0.183,0.164,0.219,0.436,0.087,0.642C28.168,15,27.264,15,26.967,15z M20,12.5c4.59,0,6.161,0.974,6.832,1.39 c0.087,0.054,0.151,0.1,0.207,0.121c0.158-0.009,0.786-0.42,1.792-1.905C27.906,11.437,25.3,10,20,10 c-5.12,0-7.694,1.387-8.814,2.132C12.383,13.905,12.893,14,12.987,14c-0.015-0.011,0.052-0.057,0.142-0.112 C13.812,13.473,15.409,12.5,20,12.5z"/></g></svg>