<?xml version="1.0" encoding="UTF-8"?>
<svg xmlns="http://www.w3.org/2000/svg" xmlns:xlink="http://www.w3.org/1999/xlink" width="45px" height="45px" viewBox="0 0 45 45" version="1.1">
<g id="surface1">
<path style=" stroke:none;fill-rule:nonzero;fill:rgb(94.509804%,73.72549%,9.803922%);fill-opacity:1;" d="M 34.648438 5.398438 C 34.402344 5.398438 34.199219 5.601562 34.199219 5.851562 C 34.199219 6.097656 34.402344 6.300781 34.648438 6.300781 C 34.898438 6.300781 35.101562 6.097656 35.101562 5.851562 C 35.101562 5.601562 34.898438 5.398438 34.648438 5.398438 Z M 34.648438 5.398438 "/>
<path style=" stroke:none;fill-rule:nonzero;fill:rgb(90.196078%,92.941176%,71.764706%);fill-opacity:1;" d="M 22.5 5.851562 C 13.304688 5.851562 5.851562 13.304688 5.851562 22.5 C 5.851562 31.695312 13.304688 39.148438 22.5 39.148438 C 31.695312 39.148438 39.148438 31.695312 39.148438 22.5 C 39.148438 13.304688 31.695312 5.851562 22.5 5.851562 Z M 22.5 5.851562 "/>
<path style=" stroke:none;fill-rule:nonzero;fill:rgb(94.509804%,73.72549%,9.803922%);fill-opacity:1;" d="M 37.351562 4.949219 C 36.355469 4.949219 35.550781 5.757812 35.550781 6.75 C 35.550781 7.742188 36.355469 8.550781 37.351562 8.550781 C 38.34375 8.550781 39.148438 7.742188 39.148438 6.75 C 39.148438 5.757812 38.34375 4.949219 37.351562 4.949219 Z M 37.351562 4.949219 "/>
<path style=" stroke:none;fill-rule:nonzero;fill:rgb(53.333333%,68.235294%,27.058824%);fill-opacity:1;" d="M 39.148438 9.898438 C 38.652344 9.898438 38.25 10.304688 38.25 10.800781 C 38.25 11.296875 38.652344 11.699219 39.148438 11.699219 C 39.648438 11.699219 40.050781 11.296875 40.050781 10.800781 C 40.050781 10.304688 39.648438 9.898438 39.148438 9.898438 Z M 39.148438 9.898438 "/>
<path style=" stroke:none;fill-rule:nonzero;fill:rgb(98.431373%,80.392157%,34.901961%);fill-opacity:1;" d="M 36.449219 33.300781 C 35.953125 33.300781 35.550781 33.703125 35.550781 34.199219 C 35.550781 34.695312 35.953125 35.101562 36.449219 35.101562 C 36.945312 35.101562 37.351562 34.695312 37.351562 34.199219 C 37.351562 33.703125 36.945312 33.300781 36.449219 33.300781 Z M 6.75 26.550781 C 5.757812 26.550781 4.949219 27.355469 4.949219 28.351562 C 4.949219 29.34375 5.757812 30.148438 6.75 30.148438 C 7.742188 30.148438 8.550781 29.34375 8.550781 28.351562 C 8.550781 27.355469 7.742188 26.550781 6.75 26.550781 Z M 6.75 26.550781 "/>
<path style=" stroke:none;fill-rule:nonzero;fill:rgb(53.333333%,68.235294%,27.058824%);fill-opacity:1;" d="M 11.25 38.25 C 10.753906 38.25 10.351562 38.652344 10.351562 39.148438 C 10.351562 39.648438 10.753906 40.050781 11.25 40.050781 C 11.746094 40.050781 12.148438 39.648438 12.148438 39.148438 C 12.148438 38.652344 11.746094 38.25 11.25 38.25 Z M 11.25 38.25 "/>
<path style=" stroke:none;fill-rule:nonzero;fill:rgb(100%,100%,100%);fill-opacity:1;" d="M 8.324219 22.050781 C 7.703125 22.050781 7.199219 22.554688 7.199219 23.175781 C 7.199219 23.796875 7.703125 24.300781 8.324219 24.300781 C 8.945312 24.300781 9.449219 23.796875 9.449219 23.175781 C 9.449219 22.554688 8.945312 22.050781 8.324219 22.050781 Z M 35.773438 14.398438 C 35.402344 14.398438 35.101562 14.703125 35.101562 15.074219 C 35.101562 15.449219 35.402344 15.75 35.773438 15.75 C 36.148438 15.75 36.449219 15.449219 36.449219 15.074219 C 36.449219 14.703125 36.148438 14.398438 35.773438 14.398438 Z M 35.773438 14.398438 "/>
<path style=" stroke:none;fill-rule:nonzero;fill:rgb(74.117647%,59.215686%,48.627451%);fill-opacity:1;" d="M 32.511719 18.34375 L 32.511719 31.132812 C 32.511719 32.386719 31.507812 33.410156 30.28125 33.410156 L 14.707031 33.410156 C 13.480469 33.410156 12.476562 32.386719 12.476562 31.132812 L 12.476562 18.34375 "/>
<path style=" stroke:none;fill-rule:nonzero;fill:rgb(27.843137%,16.862745%,16.078431%);fill-opacity:1;" d="M 30.28125 33.726562 L 14.707031 33.726562 C 13.304688 33.726562 12.164062 32.5625 12.164062 31.128906 L 12.164062 18.34375 L 12.792969 18.34375 L 12.792969 31.132812 C 12.792969 32.214844 13.652344 33.097656 14.707031 33.097656 L 30.28125 33.097656 C 31.339844 33.097656 32.195312 32.214844 32.195312 31.132812 L 32.195312 18.34375 L 32.828125 18.34375 L 32.828125 31.132812 C 32.828125 32.5625 31.683594 33.726562 30.28125 33.726562 Z M 30.28125 33.726562 "/>
<path style=" stroke:none;fill-rule:nonzero;fill:rgb(93.333333%,24.313725%,32.941176%);fill-opacity:1;" d="M 27.796875 19.890625 L 27.796875 22.777344 L 28.816406 21.929688 L 29.835938 22.777344 L 29.835938 19.890625 Z M 27.796875 19.890625 "/>
<path style=" stroke:none;fill-rule:nonzero;fill:rgb(27.843137%,16.862745%,16.078431%);fill-opacity:1;" d="M 30.148438 23.234375 L 28.8125 22.210938 L 27.449219 23.226562 L 27.449219 19.800781 L 30.148438 19.800781 Z M 27.898438 20.25 L 27.898438 22.328125 L 28.816406 21.644531 L 29.699219 22.320312 L 29.699219 20.25 Z M 27.898438 20.25 "/>
<path style=" stroke:none;fill-rule:nonzero;fill:rgb(96.470588%,80%,64.313725%);fill-opacity:1;" d="M 13.183594 19.933594 C 12.292969 19.933594 11.566406 19.105469 11.566406 18.082031 L 11.566406 13.816406 L 33.433594 13.816406 L 33.433594 18.082031 C 33.433594 19.105469 32.707031 19.933594 31.816406 19.933594 Z M 13.183594 19.933594 "/>
<path style=" stroke:none;fill-rule:nonzero;fill:rgb(27.843137%,16.862745%,16.078431%);fill-opacity:1;" d="M 33.121094 14.128906 L 33.121094 18.082031 C 33.121094 18.929688 32.535156 19.621094 31.816406 19.621094 L 13.183594 19.621094 C 12.464844 19.621094 11.878906 18.929688 11.878906 18.082031 L 11.878906 14.128906 L 33.121094 14.128906 M 33.636719 13.5 L 11.433594 13.5 C 11.332031 13.5 11.25 13.59375 11.25 13.707031 L 11.25 18.082031 C 11.25 19.273438 12.121094 20.25 13.183594 20.25 L 31.816406 20.25 C 32.878906 20.25 33.75 19.273438 33.75 18.082031 L 33.75 13.625 C 33.75 13.558594 33.699219 13.5 33.636719 13.5 Z M 33.636719 13.5 "/>
<path style=" stroke:none;fill-rule:nonzero;fill:rgb(27.843137%,16.862745%,16.078431%);fill-opacity:1;" d="M 28.816406 21.992188 C 28.757812 21.992188 28.707031 21.945312 28.707031 21.886719 L 28.707031 20.085938 C 28.707031 20.027344 28.757812 19.976562 28.816406 19.976562 C 28.875 19.976562 28.925781 20.027344 28.925781 20.085938 L 28.925781 21.886719 C 28.925781 21.945312 28.875 21.992188 28.816406 21.992188 Z M 28.816406 21.992188 "/>
<path style=" stroke:none;fill-rule:nonzero;fill:rgb(27.843137%,16.862745%,16.078431%);fill-opacity:1;" d="M 29.703125 22.070312 C 29.691406 22.070312 29.675781 22.0625 29.664062 22.054688 L 28.839844 21.363281 C 28.816406 21.34375 28.8125 21.304688 28.832031 21.28125 C 28.855469 21.253906 28.894531 21.25 28.917969 21.273438 L 29.742188 21.960938 C 29.769531 21.984375 29.773438 22.023438 29.75 22.046875 C 29.738281 22.0625 29.722656 22.070312 29.703125 22.070312 Z M 29.703125 22.070312 "/>
<path style=" stroke:none;fill-rule:nonzero;fill:rgb(27.843137%,16.862745%,16.078431%);fill-opacity:1;" d="M 29.703125 21.449219 C 29.691406 21.449219 29.675781 21.445312 29.664062 21.4375 L 28.839844 20.746094 C 28.816406 20.726562 28.8125 20.6875 28.832031 20.660156 C 28.855469 20.636719 28.894531 20.632812 28.917969 20.652344 L 29.742188 21.34375 C 29.769531 21.363281 29.773438 21.402344 29.75 21.429688 C 29.738281 21.441406 29.722656 21.449219 29.703125 21.449219 Z M 29.703125 21.449219 "/>
<path style=" stroke:none;fill-rule:nonzero;fill:rgb(27.843137%,16.862745%,16.078431%);fill-opacity:1;" d="M 29.335938 31.949219 L 15.664062 31.949219 C 14.71875 31.949219 13.949219 31.179688 13.949219 30.234375 L 13.949219 22.726562 C 13.949219 22.601562 14.050781 22.5 14.175781 22.5 C 14.300781 22.5 14.398438 22.601562 14.398438 22.726562 L 14.398438 30.234375 C 14.398438 30.933594 14.96875 31.5 15.664062 31.5 L 29.335938 31.5 C 30.03125 31.5 30.601562 30.933594 30.601562 30.234375 L 30.601562 28.125 C 30.601562 28 30.699219 27.898438 30.824219 27.898438 C 30.949219 27.898438 31.050781 28 31.050781 28.125 L 31.050781 30.234375 C 31.050781 31.179688 30.28125 31.949219 29.335938 31.949219 Z M 29.335938 31.949219 "/>
<path style=" stroke:none;fill-rule:nonzero;fill:rgb(27.843137%,16.862745%,16.078431%);fill-opacity:1;" d="M 29.808594 20.96875 C 29.796875 20.96875 29.78125 20.964844 29.769531 20.957031 L 28.945312 20.265625 C 28.921875 20.242188 28.917969 20.207031 28.9375 20.179688 C 28.960938 20.152344 28.996094 20.152344 29.023438 20.171875 L 29.847656 20.863281 C 29.871094 20.882812 29.875 20.921875 29.855469 20.949219 C 29.84375 20.960938 29.824219 20.96875 29.808594 20.96875 Z M 29.808594 20.96875 "/>
<path style=" stroke:none;fill-rule:nonzero;fill:rgb(27.843137%,16.862745%,16.078431%);fill-opacity:1;" d="M 22.273438 31.835938 C 22.152344 31.835938 22.050781 31.738281 22.050781 31.613281 L 22.050781 27.121094 C 22.050781 27 22.152344 26.898438 22.273438 26.898438 C 22.398438 26.898438 22.5 27 22.5 27.121094 L 22.5 31.613281 C 22.5 31.738281 22.398438 31.835938 22.273438 31.835938 Z M 22.273438 31.835938 "/>
<path style=" stroke:none;fill-rule:nonzero;fill:rgb(27.843137%,16.862745%,16.078431%);fill-opacity:1;" d="M 22.273438 22.726562 C 22.152344 22.726562 22.050781 22.625 22.050781 22.5 L 22.050781 21.261719 C 22.050781 21.136719 22.152344 21.039062 22.273438 21.039062 C 22.398438 21.039062 22.5 21.136719 22.5 21.261719 L 22.5 22.5 C 22.5 22.625 22.398438 22.726562 22.273438 22.726562 Z M 22.273438 22.726562 "/>
<path style=" stroke:none;fill-rule:nonzero;fill:rgb(27.843137%,16.862745%,16.078431%);fill-opacity:1;" d="M 30.824219 27 C 30.699219 27 30.601562 26.898438 30.601562 26.773438 L 30.601562 25.425781 C 30.601562 25.300781 30.699219 25.199219 30.824219 25.199219 C 30.949219 25.199219 31.050781 25.300781 31.050781 25.425781 L 31.050781 26.773438 C 31.050781 26.898438 30.949219 27 30.824219 27 Z M 30.824219 27 "/>
<path style=" stroke:none;fill-rule:nonzero;fill:rgb(99.215686%,98.823529%,93.333333%);fill-opacity:1;" d="M 24.308594 24.582031 L 19.902344 24.582031 C 19.476562 24.582031 19.125 24.171875 19.125 23.667969 C 19.125 23.164062 19.476562 22.753906 19.902344 22.753906 L 24.308594 22.753906 C 24.738281 22.753906 25.085938 23.164062 25.085938 23.667969 C 25.085938 24.167969 24.738281 24.582031 24.308594 24.582031 Z M 24.308594 24.582031 "/>
<path style=" stroke:none;fill-rule:nonzero;fill:rgb(27.843137%,16.862745%,16.078431%);fill-opacity:1;" d="M 24.222656 24.75 L 20.023438 24.75 C 19.40625 24.75 18.898438 24.246094 18.898438 23.625 C 18.898438 23.003906 19.40625 22.5 20.023438 22.5 L 24.222656 22.5 C 24.84375 22.5 25.347656 23.003906 25.347656 23.625 C 25.347656 24.246094 24.84375 24.75 24.222656 24.75 Z M 20.023438 22.949219 C 19.652344 22.949219 19.351562 23.253906 19.351562 23.625 C 19.351562 23.996094 19.652344 24.300781 20.023438 24.300781 L 24.222656 24.300781 C 24.597656 24.300781 24.898438 23.996094 24.898438 23.625 C 24.898438 23.253906 24.597656 22.949219 24.222656 22.949219 Z M 20.023438 22.949219 "/>
<path style=" stroke:none;fill-rule:nonzero;fill:rgb(27.843137%,16.862745%,16.078431%);fill-opacity:1;" d="M 16.875 29.476562 C 16.75 29.476562 16.648438 29.375 16.648438 29.25 L 16.648438 26.550781 C 16.648438 26.425781 16.75 26.324219 16.875 26.324219 C 17 26.324219 17.101562 26.425781 17.101562 26.550781 L 17.101562 29.25 C 17.101562 29.375 17 29.476562 16.875 29.476562 Z M 20.699219 30.375 L 15.75 30.375 C 15.625 30.375 15.523438 30.273438 15.523438 30.148438 C 15.523438 30.027344 15.625 29.925781 15.75 29.925781 L 20.699219 29.925781 C 20.824219 29.925781 20.925781 30.027344 20.925781 30.148438 C 20.925781 30.273438 20.824219 30.375 20.699219 30.375 Z M 19.574219 29.476562 C 19.449219 29.476562 19.351562 29.375 19.351562 29.25 L 19.351562 26.550781 C 19.351562 26.425781 19.449219 26.324219 19.574219 26.324219 C 19.699219 26.324219 19.800781 26.425781 19.800781 26.550781 L 19.800781 29.25 C 19.800781 29.375 19.699219 29.476562 19.574219 29.476562 Z M 19.574219 29.476562 "/>
<path style=" stroke:none;fill-rule:nonzero;fill:rgb(27.843137%,16.862745%,16.078431%);fill-opacity:1;" d="M 16.875 25.648438 L 15.75 27.449219 L 18 27.449219 Z M 19.574219 25.648438 L 18.449219 27.449219 L 20.699219 27.449219 Z M 19.574219 25.648438 "/>
</g>
</svg>
