<?xml version="1.0" encoding="UTF-8"?>
<svg xmlns="http://www.w3.org/2000/svg" xmlns:xlink="http://www.w3.org/1999/xlink" width="45px" height="50px" viewBox="0 0 45 45" version="1.1">
<g id="surface1">
<path style=" stroke:none;fill-rule:nonzero;fill:rgb(94.509804%,73.72549%,9.803922%);fill-opacity:1;" d="M 34.648438 5.398438 C 34.402344 5.398438 34.199219 5.601562 34.199219 5.851562 C 34.199219 6.097656 34.402344 6.300781 34.648438 6.300781 C 34.898438 6.300781 35.101562 6.097656 35.101562 5.851562 C 35.101562 5.601562 34.898438 5.398438 34.648438 5.398438 Z M 34.648438 5.398438 "/>
<path style=" stroke:none;fill-rule:nonzero;fill:rgb(75.294118%,89.803922%,89.411765%);fill-opacity:1;" d="M 22.5 5.851562 C 13.304688 5.851562 5.851562 13.304688 5.851562 22.5 C 5.851562 31.695312 13.304688 39.148438 22.5 39.148438 C 31.695312 39.148438 39.148438 31.695312 39.148438 22.5 C 39.148438 13.304688 31.695312 5.851562 22.5 5.851562 Z M 22.5 5.851562 "/>
<path style=" stroke:none;fill-rule:nonzero;fill:rgb(94.509804%,73.72549%,9.803922%);fill-opacity:1;" d="M 37.351562 4.949219 C 36.355469 4.949219 35.550781 5.757812 35.550781 6.75 C 35.550781 7.742188 36.355469 8.550781 37.351562 8.550781 C 38.34375 8.550781 39.148438 7.742188 39.148438 6.75 C 39.148438 5.757812 38.34375 4.949219 37.351562 4.949219 Z M 37.351562 4.949219 "/>
<path style=" stroke:none;fill-rule:nonzero;fill:rgb(0%,64.705882%,64.705882%);fill-opacity:1;" d="M 39.148438 9.898438 C 38.652344 9.898438 38.25 10.304688 38.25 10.800781 C 38.25 11.296875 38.652344 11.699219 39.148438 11.699219 C 39.648438 11.699219 40.050781 11.296875 40.050781 10.800781 C 40.050781 10.304688 39.648438 9.898438 39.148438 9.898438 Z M 39.148438 9.898438 "/>
<path style=" stroke:none;fill-rule:nonzero;fill:rgb(98.431373%,80.392157%,34.901961%);fill-opacity:1;" d="M 36.449219 33.300781 C 35.953125 33.300781 35.550781 33.703125 35.550781 34.199219 C 35.550781 34.695312 35.953125 35.101562 36.449219 35.101562 C 36.945312 35.101562 37.351562 34.695312 37.351562 34.199219 C 37.351562 33.703125 36.945312 33.300781 36.449219 33.300781 Z M 6.75 26.550781 C 5.757812 26.550781 4.949219 27.355469 4.949219 28.351562 C 4.949219 29.34375 5.757812 30.148438 6.75 30.148438 C 7.742188 30.148438 8.550781 29.34375 8.550781 28.351562 C 8.550781 27.355469 7.742188 26.550781 6.75 26.550781 Z M 6.75 26.550781 "/>
<path style=" stroke:none;fill-rule:nonzero;fill:rgb(0%,64.705882%,64.705882%);fill-opacity:1;" d="M 11.25 38.25 C 10.753906 38.25 10.351562 38.652344 10.351562 39.148438 C 10.351562 39.648438 10.753906 40.050781 11.25 40.050781 C 11.746094 40.050781 12.148438 39.648438 12.148438 39.148438 C 12.148438 38.652344 11.746094 38.25 11.25 38.25 Z M 11.25 38.25 "/>
<path style=" stroke:none;fill-rule:nonzero;fill:rgb(100%,100%,100%);fill-opacity:1;" d="M 8.324219 22.050781 C 7.703125 22.050781 7.199219 22.554688 7.199219 23.175781 C 7.199219 23.796875 7.703125 24.300781 8.324219 24.300781 C 8.945312 24.300781 9.449219 23.796875 9.449219 23.175781 C 9.449219 22.554688 8.945312 22.050781 8.324219 22.050781 Z M 35.773438 14.398438 C 35.402344 14.398438 35.101562 14.703125 35.101562 15.074219 C 35.101562 15.449219 35.402344 15.75 35.773438 15.75 C 36.148438 15.75 36.449219 15.449219 36.449219 15.074219 C 36.449219 14.703125 36.148438 14.398438 35.773438 14.398438 Z M 35.773438 14.398438 "/>
<path style=" stroke:none;fill-rule:nonzero;fill:rgb(99.215686%,98.823529%,93.333333%);fill-opacity:1;" d="M 11.25 20.070312 L 11.25 30.148438 L 23.398438 30.148438 L 23.398438 30.601562 L 33.75 30.601562 L 33.75 20.070312 Z M 11.25 20.070312 "/>
<path style=" stroke:none;fill-rule:nonzero;fill:rgb(69.803922%,69.411765%,76.078431%);fill-opacity:1;" d="M 13.667969 30.148438 C 13.667969 30.148438 13.667969 25.898438 13.667969 24.75 C 13.667969 23.601562 14.601562 22.667969 15.75 22.667969 C 16.898438 22.667969 17.832031 23.601562 17.832031 24.75 C 17.832031 25.363281 17.832031 30.148438 17.832031 30.148438 Z M 13.667969 30.148438 "/>
<path style=" stroke:none;fill-rule:nonzero;fill:rgb(80.392157%,79.607843%,74.117647%);fill-opacity:1;" d="M 11.25 20.070312 L 11.25 20.699219 L 23.398438 20.699219 L 23.398438 21.148438 L 33.75 21.148438 L 33.75 20.070312 Z M 11.25 20.070312 "/>
<path style=" stroke:none;fill-rule:nonzero;fill:rgb(93.333333%,24.313725%,32.941176%);fill-opacity:1;" d="M 33.007812 13.90625 L 12.414062 13.90625 L 10.34375 19.84375 L 34.664062 19.84375 Z M 33.007812 13.90625 "/>
<path style=" stroke:none;fill-rule:nonzero;fill:rgb(27.843137%,16.862745%,16.078431%);fill-opacity:1;" d="M 11.429688 19.800781 L 10.800781 19.800781 L 10.800781 30.375 C 10.800781 30.5 10.902344 30.601562 11.023438 30.601562 L 23.398438 30.601562 L 23.398438 29.96875 L 11.429688 29.96875 Z M 11.429688 19.800781 "/>
<path style=" stroke:none;fill-rule:nonzero;fill:rgb(27.843137%,16.862745%,16.078431%);fill-opacity:1;" d="M 33.570312 19.800781 L 33.570312 30.421875 L 23.578125 30.421875 L 23.578125 19.800781 L 22.949219 19.800781 L 22.949219 30.824219 C 22.949219 30.949219 23.050781 31.050781 23.175781 31.050781 L 33.976562 31.050781 C 34.097656 31.050781 34.199219 30.949219 34.199219 30.824219 L 34.199219 19.800781 Z M 33.570312 19.800781 "/>
<path style=" stroke:none;fill-rule:nonzero;fill:rgb(27.843137%,16.862745%,16.078431%);fill-opacity:1;" d="M 32.835938 14.128906 L 34.371094 19.621094 L 10.660156 19.621094 L 12.574219 14.128906 L 32.835938 14.128906 M 33.074219 13.5 L 12.351562 13.5 C 12.21875 13.5 12.097656 13.585938 12.050781 13.710938 L 9.917969 19.832031 C 9.847656 20.035156 10 20.25 10.21875 20.25 L 34.78125 20.25 C 34.992188 20.25 35.144531 20.050781 35.089844 19.851562 L 33.378906 13.730469 C 33.34375 13.59375 33.21875 13.5 33.074219 13.5 Z M 33.074219 13.5 "/>
<path style=" stroke:none;fill-rule:nonzero;fill:rgb(27.843137%,16.862745%,16.078431%);fill-opacity:1;" d="M 28.632812 15.300781 L 13.21875 15.300781 C 13.125 15.300781 13.050781 15.222656 13.050781 15.132812 C 13.050781 15.039062 13.125 14.960938 13.21875 14.960938 L 28.632812 14.960938 C 28.722656 14.960938 28.800781 15.039062 28.800781 15.132812 C 28.800781 15.222656 28.722656 15.300781 28.632812 15.300781 Z M 28.179688 16.199219 L 12.992188 16.199219 C 12.902344 16.199219 12.824219 16.125 12.824219 16.03125 C 12.824219 15.9375 12.902344 15.863281 12.992188 15.863281 L 28.179688 15.863281 C 28.273438 15.863281 28.351562 15.9375 28.351562 16.03125 C 28.351562 16.125 28.273438 16.199219 28.179688 16.199219 Z M 27.730469 17.101562 L 12.769531 17.101562 C 12.675781 17.101562 12.601562 17.023438 12.601562 16.929688 C 12.601562 16.839844 12.675781 16.761719 12.769531 16.761719 L 27.730469 16.761719 C 27.824219 16.761719 27.898438 16.839844 27.898438 16.929688 C 27.898438 17.023438 27.824219 17.101562 27.730469 17.101562 Z M 27.730469 17.101562 "/>
<path style=" stroke:none;fill-rule:nonzero;fill:rgb(98.431373%,72.54902%,49.803922%);fill-opacity:1;" d="M 31.949219 12.261719 C 31.792969 12.261719 29.859375 12.261719 29.699219 12.261719 C 29.515625 12.261719 29.363281 12.414062 29.363281 12.601562 C 29.363281 12.785156 29.515625 12.9375 29.699219 12.9375 C 29.859375 12.9375 31.792969 12.9375 31.949219 12.9375 C 32.136719 12.9375 32.289062 12.785156 32.289062 12.601562 C 32.289062 12.414062 32.136719 12.261719 31.949219 12.261719 Z M 31.949219 12.261719 "/>
<path style=" stroke:none;fill-rule:nonzero;fill:rgb(27.843137%,16.862745%,16.078431%);fill-opacity:1;" d="M 31.949219 13.050781 L 29.699219 13.050781 C 29.453125 13.050781 29.25 12.847656 29.25 12.601562 C 29.25 12.351562 29.453125 12.148438 29.699219 12.148438 L 31.949219 12.148438 C 32.199219 12.148438 32.398438 12.351562 32.398438 12.601562 C 32.398438 12.847656 32.199219 13.050781 31.949219 13.050781 Z M 29.699219 12.375 C 29.574219 12.375 29.476562 12.476562 29.476562 12.601562 C 29.476562 12.722656 29.574219 12.824219 29.699219 12.824219 L 31.949219 12.824219 C 32.074219 12.824219 32.175781 12.722656 32.175781 12.601562 C 32.175781 12.476562 32.074219 12.375 31.949219 12.375 Z M 29.699219 12.375 "/>
<path style=" stroke:none;fill-rule:nonzero;fill:rgb(99.215686%,83.137255%,69.803922%);fill-opacity:1;" d="M 31.835938 16.988281 L 29.8125 16.988281 L 29.8125 12.9375 L 31.894531 12.9375 Z M 31.835938 16.988281 "/>
<path style=" stroke:none;fill-rule:nonzero;fill:rgb(27.843137%,16.862745%,16.078431%);fill-opacity:1;" d="M 31.835938 17.101562 L 29.8125 17.101562 C 29.75 17.101562 29.699219 17.050781 29.699219 16.988281 L 29.699219 12.9375 C 29.699219 12.875 29.75 12.824219 29.8125 12.824219 L 31.894531 12.824219 C 31.925781 12.824219 31.953125 12.835938 31.972656 12.859375 C 31.996094 12.878906 32.007812 12.910156 32.007812 12.9375 L 31.949219 16.988281 C 31.949219 17.050781 31.898438 17.101562 31.835938 17.101562 Z M 29.925781 16.875 L 31.726562 16.875 L 31.78125 13.050781 L 29.925781 13.050781 Z M 33.695312 21.375 L 25.761719 21.375 C 25.699219 21.375 25.648438 21.324219 25.648438 21.261719 C 25.648438 21.199219 25.699219 21.148438 25.761719 21.148438 L 33.695312 21.148438 C 33.753906 21.148438 33.804688 21.199219 33.804688 21.261719 C 33.804688 21.324219 33.753906 21.375 33.695312 21.375 Z M 25.085938 21.375 L 24.414062 21.375 C 24.351562 21.375 24.300781 21.324219 24.300781 21.261719 C 24.300781 21.199219 24.351562 21.148438 24.414062 21.148438 L 25.085938 21.148438 C 25.148438 21.148438 25.199219 21.199219 25.199219 21.261719 C 25.199219 21.324219 25.148438 21.375 25.085938 21.375 Z M 19.6875 20.925781 L 11.304688 20.925781 C 11.246094 20.925781 11.195312 20.875 11.195312 20.8125 C 11.195312 20.75 11.246094 20.699219 11.304688 20.699219 L 19.6875 20.699219 C 19.75 20.699219 19.800781 20.75 19.800781 20.8125 C 19.800781 20.875 19.75 20.925781 19.6875 20.925781 Z M 21.488281 20.925781 L 20.8125 20.925781 C 20.75 20.925781 20.699219 20.875 20.699219 20.8125 C 20.699219 20.75 20.75 20.699219 20.8125 20.699219 L 21.488281 20.699219 C 21.550781 20.699219 21.601562 20.75 21.601562 20.8125 C 21.601562 20.875 21.550781 20.925781 21.488281 20.925781 Z M 21.488281 20.925781 "/>
<path style=" stroke:none;fill-rule:nonzero;fill:rgb(75.294118%,89.803922%,89.411765%);fill-opacity:1;" d="M 30.882812 24.46875 L 30.882812 28.179688 L 26.269531 28.179688 L 26.269531 23.117188 L 29.980469 23.117188 Z M 30.882812 24.46875 "/>
<path style=" stroke:none;fill-rule:nonzero;fill:rgb(27.843137%,16.862745%,16.078431%);fill-opacity:1;" d="M 30.882812 28.351562 L 26.269531 28.351562 C 26.175781 28.351562 26.101562 28.273438 26.101562 28.179688 L 26.101562 23.117188 C 26.101562 23.027344 26.175781 22.949219 26.269531 22.949219 L 29.980469 22.949219 C 30.074219 22.949219 30.148438 23.027344 30.148438 23.117188 C 30.148438 23.210938 30.074219 23.289062 29.980469 23.289062 L 26.4375 23.289062 L 26.4375 28.011719 L 30.710938 28.011719 L 30.710938 24.46875 C 30.710938 24.375 30.789062 24.300781 30.882812 24.300781 C 30.972656 24.300781 31.050781 24.375 31.050781 24.46875 L 31.050781 28.179688 C 31.050781 28.273438 30.972656 28.351562 30.882812 28.351562 Z M 30.882812 28.351562 "/>
<path style=" stroke:none;fill-rule:nonzero;fill:rgb(27.843137%,16.862745%,16.078431%);fill-opacity:1;" d="M 28.574219 28.351562 C 28.480469 28.351562 28.40625 28.273438 28.40625 28.179688 L 28.40625 23.117188 C 28.40625 23.027344 28.480469 22.949219 28.574219 22.949219 C 28.667969 22.949219 28.742188 23.027344 28.742188 23.117188 L 28.742188 28.179688 C 28.742188 28.273438 28.667969 28.351562 28.574219 28.351562 Z M 28.574219 28.351562 "/>
<path style=" stroke:none;fill-rule:nonzero;fill:rgb(75.294118%,89.803922%,89.411765%);fill-opacity:1;" d="M 21.882812 25.480469 L 21.882812 23.117188 L 19.070312 23.117188 L 19.070312 26.382812 L 21.429688 26.382812 Z M 21.882812 25.480469 "/>
<path style=" stroke:none;fill-rule:nonzero;fill:rgb(27.843137%,16.862745%,16.078431%);fill-opacity:1;" d="M 21.429688 26.550781 L 19.070312 26.550781 C 19.023438 26.550781 18.980469 26.53125 18.949219 26.5 C 18.917969 26.46875 18.898438 26.425781 18.898438 26.382812 L 18.902344 23.117188 C 18.902344 23.027344 18.976562 22.949219 19.070312 22.949219 L 21.882812 22.949219 C 21.925781 22.949219 21.96875 22.96875 22 23 C 22.035156 23.03125 22.050781 23.074219 22.050781 23.117188 L 22.050781 25.480469 C 22.050781 25.574219 21.972656 25.648438 21.882812 25.648438 C 21.789062 25.648438 21.710938 25.574219 21.710938 25.480469 L 21.714844 23.289062 L 19.238281 23.289062 L 19.238281 26.210938 L 21.429688 26.210938 C 21.523438 26.210938 21.601562 26.289062 21.601562 26.382812 C 21.601562 26.472656 21.523438 26.550781 21.429688 26.550781 Z M 21.429688 26.550781 "/>
<path style=" stroke:none;fill-rule:nonzero;fill:rgb(27.843137%,16.862745%,16.078431%);fill-opacity:1;" d="M 20.476562 26.542969 C 20.382812 26.542969 20.308594 26.46875 20.308594 26.375 L 20.308594 23.117188 C 20.308594 23.027344 20.382812 22.949219 20.476562 22.949219 C 20.570312 22.949219 20.644531 23.027344 20.644531 23.117188 L 20.644531 26.375 C 20.644531 26.46875 20.570312 26.542969 20.476562 26.542969 Z M 17.832031 30.320312 C 17.738281 30.320312 17.664062 30.242188 17.664062 30.148438 L 17.664062 24.75 C 17.664062 23.695312 16.804688 22.835938 15.75 22.835938 C 14.695312 22.835938 13.835938 23.695312 13.835938 24.75 L 13.835938 30.148438 C 13.835938 30.242188 13.761719 30.320312 13.667969 30.320312 C 13.574219 30.320312 13.5 30.242188 13.5 30.148438 L 13.5 24.75 C 13.5 23.507812 14.507812 22.5 15.75 22.5 C 16.992188 22.5 18 23.507812 18 24.75 L 18 30.148438 C 18 30.242188 17.925781 30.320312 17.832031 30.320312 Z M 17.832031 30.320312 "/>
<path style=" stroke:none;fill-rule:nonzero;fill:rgb(75.294118%,89.803922%,89.411765%);fill-opacity:1;" d="M 16.988281 25.199219 C 16.988281 25.445312 16.988281 25.988281 16.988281 25.988281 L 14.511719 25.988281 C 14.511719 25.988281 14.511719 25.882812 14.511719 25.199219 C 14.511719 24.515625 15.066406 23.960938 15.75 23.960938 C 16.433594 23.960938 16.988281 24.515625 16.988281 25.199219 Z M 16.988281 25.199219 "/>
<path style=" stroke:none;fill-rule:nonzero;fill:rgb(27.843137%,16.862745%,16.078431%);fill-opacity:1;" d="M 16.988281 26.101562 L 14.511719 26.101562 C 14.449219 26.101562 14.398438 26.050781 14.398438 25.988281 L 14.398438 25.199219 C 14.398438 24.457031 15.003906 23.851562 15.75 23.851562 C 16.496094 23.851562 17.101562 24.457031 17.101562 25.199219 L 17.101562 25.988281 C 17.101562 26.050781 17.050781 26.101562 16.988281 26.101562 Z M 14.625 25.875 L 16.875 25.875 L 16.875 25.199219 C 16.875 24.578125 16.371094 24.074219 15.75 24.074219 C 15.128906 24.074219 14.625 24.578125 14.625 25.199219 Z M 16.988281 27.449219 L 16.761719 27.449219 C 16.699219 27.449219 16.648438 27.398438 16.648438 27.335938 C 16.648438 27.277344 16.699219 27.226562 16.761719 27.226562 L 16.988281 27.226562 C 17.050781 27.226562 17.101562 27.277344 17.101562 27.335938 C 17.101562 27.398438 17.050781 27.449219 16.988281 27.449219 Z M 16.988281 27.449219 "/>
</g>
</svg>
