<?xml version="1.0" encoding="UTF-8"?>
<svg xmlns="http://www.w3.org/2000/svg" xmlns:xlink="http://www.w3.org/1999/xlink" width="48px" height="48px" viewBox="0 0 48 48" version="1.1">
<g id="surface1">
<path style=" stroke:none;fill-rule:nonzero;fill:rgb(93.333333%,24.313725%,32.941176%);fill-opacity:1;" d="M 6.238281 12.960938 C 5.707031 12.960938 5.285156 13.390625 5.285156 13.921875 C 5.285156 14.449219 5.707031 14.882812 6.238281 14.882812 C 6.761719 14.882812 7.203125 14.449219 7.203125 13.921875 C 7.203125 13.390625 6.761719 12.960938 6.238281 12.960938 Z M 6.238281 12.960938 "/>
<path style=" stroke:none;fill-rule:nonzero;fill:rgb(94.509804%,73.72549%,9.803922%);fill-opacity:1;" d="M 36.960938 5.761719 C 36.691406 5.761719 36.484375 5.976562 36.484375 6.238281 C 36.484375 6.507812 36.691406 6.714844 36.960938 6.714844 C 37.230469 6.714844 37.4375 6.507812 37.4375 6.238281 C 37.4375 5.976562 37.230469 5.761719 36.960938 5.761719 Z M 36.960938 5.761719 "/>
<path style=" stroke:none;fill-rule:nonzero;fill:rgb(98.823529%,87.843137%,63.529412%);fill-opacity:1;" d="M 24 6.238281 C 14.1875 6.238281 6.238281 14.1875 6.238281 24 C 6.238281 33.8125 14.1875 41.761719 24 41.761719 C 33.8125 41.761719 41.761719 33.8125 41.761719 24 C 41.761719 14.1875 33.8125 6.238281 24 6.238281 Z M 24 6.238281 "/>
<path style=" stroke:none;fill-rule:nonzero;fill:rgb(94.509804%,73.72549%,9.803922%);fill-opacity:1;" d="M 39.835938 5.285156 C 38.777344 5.285156 37.921875 6.140625 37.921875 7.203125 C 37.921875 8.257812 38.777344 9.117188 39.835938 9.117188 C 40.898438 9.117188 41.761719 8.257812 41.761719 7.203125 C 41.761719 6.140625 40.898438 5.285156 39.835938 5.285156 Z M 39.835938 5.285156 "/>
<path style=" stroke:none;fill-rule:nonzero;fill:rgb(93.333333%,24.313725%,32.941176%);fill-opacity:1;" d="M 41.761719 10.5625 C 41.238281 10.5625 40.796875 10.992188 40.796875 11.515625 C 40.796875 12.046875 41.238281 12.484375 41.761719 12.484375 C 42.292969 12.484375 42.714844 12.046875 42.714844 11.515625 C 42.714844 10.992188 42.292969 10.5625 41.761719 10.5625 Z M 41.761719 10.5625 "/>
<path style=" stroke:none;fill-rule:nonzero;fill:rgb(98.431373%,80.392157%,34.901961%);fill-opacity:1;" d="M 38.882812 35.515625 C 38.355469 35.515625 37.921875 35.953125 37.921875 36.484375 C 37.921875 37.007812 38.355469 37.4375 38.882812 37.4375 C 39.410156 37.4375 39.835938 37.007812 39.835938 36.484375 C 39.835938 35.953125 39.410156 35.515625 38.882812 35.515625 Z M 7.203125 28.320312 C 6.140625 28.320312 5.285156 29.179688 5.285156 30.238281 C 5.285156 31.300781 6.140625 32.164062 7.203125 32.164062 C 8.257812 32.164062 9.117188 31.300781 9.117188 30.238281 C 9.117188 29.179688 8.257812 28.320312 7.203125 28.320312 Z M 7.203125 28.320312 "/>
<path style=" stroke:none;fill-rule:nonzero;fill:rgb(93.333333%,24.313725%,32.941176%);fill-opacity:1;" d="M 12 40.796875 C 11.472656 40.796875 11.039062 41.238281 11.039062 41.761719 C 11.039062 42.292969 11.472656 42.714844 12 42.714844 C 12.527344 42.714844 12.960938 42.292969 12.960938 41.761719 C 12.960938 41.238281 12.527344 40.796875 12 40.796875 Z M 12 40.796875 "/>
<path style=" stroke:none;fill-rule:nonzero;fill:rgb(100%,100%,100%);fill-opacity:1;" d="M 8.882812 24.484375 C 8.214844 24.484375 7.679688 25.015625 7.679688 25.679688 C 7.679688 26.339844 8.214844 26.882812 8.882812 26.882812 C 9.550781 26.882812 10.078125 26.339844 10.078125 25.679688 C 10.078125 25.015625 9.550781 24.484375 8.882812 24.484375 Z M 8.882812 24.484375 "/>
<path style=" stroke:none;fill-rule:nonzero;fill:rgb(94.509804%,73.72549%,9.803922%);fill-opacity:1;" d="M 10.078125 31.679688 C 9.816406 31.679688 9.601562 31.886719 9.601562 32.164062 C 9.601562 32.425781 9.816406 32.636719 10.078125 32.636719 C 10.347656 32.636719 10.5625 32.425781 10.5625 32.164062 C 10.5625 31.886719 10.347656 31.679688 10.078125 31.679688 Z M 10.078125 31.679688 "/>
<path style=" stroke:none;fill-rule:nonzero;fill:rgb(100%,100%,100%);fill-opacity:1;" d="M 38.398438 15.835938 C 38.132812 15.835938 37.921875 16.054688 37.921875 16.320312 C 37.921875 16.582031 38.132812 16.796875 38.398438 16.796875 C 38.667969 16.796875 38.882812 16.582031 38.882812 16.320312 C 38.882812 16.054688 38.667969 15.835938 38.398438 15.835938 Z M 38.398438 15.835938 "/>
<path style=" stroke:none;fill-rule:nonzero;fill:rgb(35.294118%,72.941176%,61.960784%);fill-opacity:1;" d="M 31.054688 26.257812 L 34.699219 26.257812 L 34.699219 34.230469 L 31.054688 34.230469 Z M 31.054688 26.257812 "/>
<path style=" stroke:none;fill-rule:nonzero;fill:rgb(27.843137%,16.862745%,16.078431%);fill-opacity:1;" d="M 34.367188 26.589844 L 34.367188 33.890625 L 31.390625 33.890625 L 31.390625 26.589844 L 34.367188 26.589844 M 35.039062 25.921875 L 30.714844 25.921875 L 30.714844 34.5625 L 35.039062 34.5625 Z M 35.039062 25.921875 "/>
<path style=" stroke:none;fill-rule:nonzero;fill:rgb(91.764706%,31.764706%,40.392157%);fill-opacity:1;" d="M 25.300781 20.976562 L 28.945312 20.976562 L 28.945312 34.230469 L 25.300781 34.230469 Z M 25.300781 20.976562 "/>
<path style=" stroke:none;fill-rule:nonzero;fill:rgb(27.843137%,16.862745%,16.078431%);fill-opacity:1;" d="M 28.609375 21.3125 L 28.609375 33.890625 L 25.632812 33.890625 L 25.632812 21.3125 L 28.609375 21.3125 M 29.285156 20.636719 L 24.960938 20.636719 L 24.960938 34.5625 L 29.285156 34.5625 Z M 29.285156 20.636719 "/>
<path style=" stroke:none;fill-rule:nonzero;fill:rgb(98.823529%,93.333333%,12.941176%);fill-opacity:1;" d="M 19.539062 28.171875 L 23.183594 28.171875 L 23.183594 34.230469 L 19.539062 34.230469 Z M 19.539062 28.171875 "/>
<path style=" stroke:none;fill-rule:nonzero;fill:rgb(27.843137%,16.862745%,16.078431%);fill-opacity:1;" d="M 22.847656 28.511719 L 22.847656 33.890625 L 19.871094 33.890625 L 19.871094 28.511719 L 22.847656 28.511719 M 23.515625 27.835938 L 19.203125 27.835938 L 19.203125 34.5625 L 23.515625 34.5625 Z M 23.515625 27.835938 "/>
<path style=" stroke:none;fill-rule:nonzero;fill:rgb(45.098039%,69.803922%,89.803922%);fill-opacity:1;" d="M 13.769531 23.375 L 17.425781 23.375 L 17.425781 34.230469 L 13.769531 34.230469 Z M 13.769531 23.375 "/>
<path style=" stroke:none;fill-rule:nonzero;fill:rgb(27.843137%,16.862745%,16.078431%);fill-opacity:1;" d="M 17.085938 23.707031 L 17.085938 33.890625 L 14.109375 33.890625 L 14.109375 23.707031 L 17.085938 23.707031 M 17.761719 23.039062 L 13.4375 23.039062 L 13.4375 34.5625 L 17.761719 34.5625 Z M 17.761719 23.039062 "/>
<path style=" stroke:none;fill-rule:nonzero;fill:rgb(27.843137%,16.862745%,16.078431%);fill-opacity:1;" d="M 35.761719 34.507812 L 12.714844 34.507812 C 12.535156 34.507812 12.382812 34.359375 12.382812 34.171875 C 12.382812 33.984375 12.535156 33.832031 12.714844 33.832031 L 35.761719 33.832031 C 35.949219 33.832031 36.101562 33.984375 36.101562 34.171875 C 36.101562 34.359375 35.949219 34.507812 35.761719 34.507812 Z M 35.761719 34.507812 "/>
<path style=" stroke:none;fill-rule:nonzero;fill:rgb(27.843137%,16.862745%,16.078431%);fill-opacity:1;" d="M 21.382812 19.25 L 15.609375 15.878906 L 12.855469 17.714844 L 12.585938 17.320312 L 15.589844 15.316406 L 21.332031 18.671875 L 27.105469 13.867188 L 33.367188 17.726562 L 36.601562 15.871094 L 36.832031 16.289062 L 33.363281 18.273438 L 27.140625 14.449219 Z M 21.382812 19.25 "/>
<path style=" stroke:none;fill-rule:nonzero;fill:rgb(94.509804%,73.72549%,9.803922%);fill-opacity:1;" d="M 26.882812 12.714844 C 26.214844 12.714844 25.679688 13.253906 25.679688 13.921875 C 25.679688 14.578125 26.214844 15.117188 26.882812 15.117188 C 27.550781 15.117188 28.078125 14.578125 28.078125 13.921875 C 28.078125 13.253906 27.550781 12.714844 26.882812 12.714844 Z M 26.882812 12.714844 "/>
<path style=" stroke:none;fill-rule:nonzero;fill:rgb(27.843137%,16.862745%,16.078431%);fill-opacity:1;" d="M 26.882812 15.453125 C 26.027344 15.453125 25.347656 14.765625 25.347656 13.921875 C 25.347656 13.074219 26.035156 12.382812 26.882812 12.382812 C 27.726562 12.382812 28.417969 13.074219 28.417969 13.921875 C 28.417969 14.765625 27.726562 15.453125 26.882812 15.453125 Z M 26.882812 13.054688 C 26.402344 13.054688 26.015625 13.441406 26.015625 13.921875 C 26.015625 14.394531 26.402344 14.785156 26.882812 14.785156 C 27.363281 14.785156 27.742188 14.394531 27.742188 13.921875 C 27.742188 13.441406 27.363281 13.054688 26.882812 13.054688 Z M 26.882812 13.054688 "/>
<path style=" stroke:none;fill-rule:nonzero;fill:rgb(94.509804%,73.72549%,9.803922%);fill-opacity:1;" d="M 33.117188 16.5625 C 32.449219 16.5625 31.921875 17.097656 31.921875 17.761719 C 31.921875 18.421875 32.449219 18.960938 33.117188 18.960938 C 33.785156 18.960938 34.320312 18.421875 34.320312 17.761719 C 34.320312 17.097656 33.785156 16.5625 33.117188 16.5625 Z M 33.117188 16.5625 "/>
<path style=" stroke:none;fill-rule:nonzero;fill:rgb(27.843137%,16.862745%,16.078431%);fill-opacity:1;" d="M 33.117188 19.300781 C 32.273438 19.300781 31.582031 18.609375 31.582031 17.761719 C 31.582031 16.914062 32.273438 16.230469 33.117188 16.230469 C 33.964844 16.230469 34.652344 16.914062 34.652344 17.761719 C 34.652344 18.609375 33.972656 19.300781 33.117188 19.300781 Z M 33.117188 16.898438 C 32.636719 16.898438 32.257812 17.285156 32.257812 17.761719 C 32.257812 18.234375 32.636719 18.625 33.117188 18.625 C 33.597656 18.625 33.984375 18.234375 33.984375 17.761719 C 33.984375 17.285156 33.597656 16.898438 33.117188 16.898438 Z M 33.117188 16.898438 "/>
<path style=" stroke:none;fill-rule:nonzero;fill:rgb(94.509804%,73.72549%,9.803922%);fill-opacity:1;" d="M 21.117188 17.515625 C 20.449219 17.515625 19.921875 18.054688 19.921875 18.714844 C 19.921875 19.382812 20.449219 19.921875 21.117188 19.921875 C 21.785156 19.921875 22.320312 19.382812 22.320312 18.714844 C 22.320312 18.054688 21.785156 17.515625 21.117188 17.515625 Z M 21.117188 17.515625 "/>
<path style=" stroke:none;fill-rule:nonzero;fill:rgb(27.843137%,16.862745%,16.078431%);fill-opacity:1;" d="M 21.117188 20.257812 C 20.273438 20.257812 19.582031 19.566406 19.582031 18.714844 C 19.582031 17.875 20.273438 17.183594 21.117188 17.183594 C 21.964844 17.183594 22.652344 17.875 22.652344 18.714844 C 22.652344 19.566406 21.972656 20.257812 21.117188 20.257812 Z M 21.117188 17.859375 C 20.636719 17.859375 20.257812 18.242188 20.257812 18.714844 C 20.257812 19.195312 20.636719 19.582031 21.117188 19.582031 C 21.597656 19.582031 21.984375 19.195312 21.984375 18.714844 C 21.984375 18.242188 21.597656 17.859375 21.117188 17.859375 Z M 21.117188 17.859375 "/>
<path style=" stroke:none;fill-rule:nonzero;fill:rgb(94.509804%,73.72549%,9.803922%);fill-opacity:1;" d="M 15.601562 14.398438 C 14.9375 14.398438 14.398438 14.9375 14.398438 15.601562 C 14.398438 16.265625 14.9375 16.796875 15.601562 16.796875 C 16.265625 16.796875 16.796875 16.265625 16.796875 15.601562 C 16.796875 14.9375 16.265625 14.398438 15.601562 14.398438 Z M 15.601562 14.398438 "/>
<path style=" stroke:none;fill-rule:nonzero;fill:rgb(27.843137%,16.862745%,16.078431%);fill-opacity:1;" d="M 15.601562 17.140625 C 14.75 17.140625 14.0625 16.449219 14.0625 15.601562 C 14.0625 14.75 14.75 14.0625 15.601562 14.0625 C 16.449219 14.0625 17.140625 14.75 17.140625 15.601562 C 17.140625 16.449219 16.449219 17.140625 15.601562 17.140625 Z M 15.601562 14.734375 C 15.125 14.734375 14.734375 15.125 14.734375 15.601562 C 14.734375 16.078125 15.125 16.460938 15.601562 16.460938 C 16.078125 16.460938 16.460938 16.078125 16.460938 15.601562 C 16.460938 15.125 16.078125 14.734375 15.601562 14.734375 Z M 15.601562 14.734375 "/>
</g>
</svg>
