<svg xmlns="http://www.w3.org/2000/svg"  viewBox="0 0 100 100" width="45px" height="45px"><path fill="#78a0cf" d="M13 27A2 2 0 1 0 13 31A2 2 0 1 0 13 27Z"/><path fill="#f1bc19" d="M77 12A1 1 0 1 0 77 14A1 1 0 1 0 77 12Z"/><path fill="#cee1f4" d="M50 13A37 37 0 1 0 50 87A37 37 0 1 0 50 13Z"/><path fill="#f1bc19" d="M83 11A4 4 0 1 0 83 19A4 4 0 1 0 83 11Z"/><path fill="#78a0cf" d="M87 22A2 2 0 1 0 87 26A2 2 0 1 0 87 22Z"/><path fill="#fbcd59" d="M81 74A2 2 0 1 0 81 78 2 2 0 1 0 81 74zM15 59A4 4 0 1 0 15 67 4 4 0 1 0 15 59z"/><path fill="#78a0cf" d="M25 85A2 2 0 1 0 25 89A2 2 0 1 0 25 85Z"/><path fill="#fff" d="M18.5 51A2.5 2.5 0 1 0 18.5 56A2.5 2.5 0 1 0 18.5 51Z"/><path fill="#f1bc19" d="M21 66A1 1 0 1 0 21 68A1 1 0 1 0 21 66Z"/><path fill="#fff" d="M80 33A1 1 0 1 0 80 35A1 1 0 1 0 80 33Z"/><g><path fill="#00a5a5" d="M35,72.3c-4.025,0-7.3-3.274-7.3-7.3V35c0-4.025,3.274-7.3,7.3-7.3h30c4.025,0,7.3,3.274,7.3,7.3 v30c0,4.025-3.274,7.3-7.3,7.3H35z"/><path fill="#472b29" d="M65,28.4c3.639,0,6.6,2.961,6.6,6.6v30c0,3.639-2.961,6.6-6.6,6.6H35c-3.639,0-6.6-2.961-6.6-6.6 V35c0-3.639,2.961-6.6,6.6-6.6H65 M65,27H35c-4.4,0-8,3.6-8,8v30c0,4.4,3.6,8,8,8h30c4.4,0,8-3.6,8-8V35C73,30.6,69.4,27,65,27 L65,27z"/></g><g><path fill="#472b29" d="M68.5,47.375c-0.276,0-0.5-0.224-0.5-0.5V43c0-0.276,0.224-0.5,0.5-0.5S69,42.724,69,43v3.875 C69,47.151,68.776,47.375,68.5,47.375z"/></g><g><path fill="#472b29" d="M68.5,40.5c-0.276,0-0.5-0.224-0.5-0.5v-2c0-0.276,0.224-0.5,0.5-0.5S69,37.724,69,38v2 C69,40.276,68.776,40.5,68.5,40.5z"/></g><g><path fill="#472b29" d="M64,69H36c-2.757,0-5-2.243-5-5V36c0-2.757,2.243-5,5-5h25.375c0.276,0,0.5,0.224,0.5,0.5 s-0.224,0.5-0.5,0.5H36c-2.206,0-4,1.794-4,4v28c0,2.206,1.794,4,4,4h28c2.206,0,4-1.794,4-4V49.625c0-0.276,0.224-0.5,0.5-0.5 s0.5,0.224,0.5,0.5V64C69,66.757,66.757,69,64,69z"/></g><g><path fill="#472b29" d="M46.5,46c-0.276,0-0.5-0.224-0.5-0.5v-4c0-0.276,0.224-0.5,0.5-0.5h7c0.276,0,0.5,0.224,0.5,0.5 S53.776,42,53.5,42H47v3.5C47,45.776,46.776,46,46.5,46z"/></g><g><path fill="#472b29" d="M53.5,60h-7c-0.276,0-0.5-0.224-0.5-0.5v-4c0-0.276,0.224-0.5,0.5-0.5s0.5,0.224,0.5,0.5V59h6.5 c0.276,0,0.5,0.224,0.5,0.5S53.776,60,53.5,60z"/></g><g><path fill="#fdfcee" d="M60.417 59.69L51.5 63 51.5 36 60.417 39.31z"/><path fill="#472b29" d="M51.5,63.5c-0.101,0-0.2-0.03-0.285-0.09C51.08,63.317,51,63.164,51,63V36 c0-0.164,0.08-0.317,0.215-0.41c0.135-0.094,0.305-0.113,0.459-0.059l8.917,3.311c0.196,0.073,0.326,0.26,0.326,0.469v20.379 c0,0.209-0.13,0.396-0.326,0.469l-8.917,3.311C51.617,63.489,51.559,63.5,51.5,63.5z M52,36.719v25.563l7.917-2.939V39.658 L52,36.719z"/></g><g><path fill="#fdfcee" d="M41.083,56.181c-0.29,0-0.562-0.112-0.766-0.316l-0.094-0.094c-0.422-0.422-0.422-1.108,0-1.53 l2.698-2.698h-6.464c-0.667,0-1.208-0.542-1.208-1.209c0-0.666,0.542-1.208,1.208-1.208h6.458l-2.692-2.692 c-0.204-0.204-0.316-0.476-0.316-0.766c0-0.289,0.112-0.561,0.316-0.765l0.094-0.094c0.204-0.204,0.476-0.316,0.766-0.316 c0.29,0,0.561,0.112,0.765,0.316l4.682,4.682c0.221,0.221,0.329,0.525,0.304,0.846c0.025,0.321-0.083,0.626-0.304,0.847 l-4.682,4.682C41.645,56.068,41.373,56.181,41.083,56.181z"/><path fill="#472b29" d="M41.083,44.992c0.149,0,0.299,0.057,0.412,0.17l4.681,4.681c0.134,0.134,0.179,0.318,0.154,0.493 c0.025,0.176-0.02,0.359-0.154,0.493l-4.681,4.681c-0.113,0.113-0.263,0.17-0.412,0.17c-0.149,0-0.299-0.057-0.412-0.17 l-0.094-0.094c-0.227-0.227-0.227-0.597,0-0.824l3.552-3.552h-7.671c-0.39,0-0.708-0.319-0.708-0.708 c0-0.39,0.319-0.708,0.708-0.708h7.665l-3.546-3.546c-0.227-0.227-0.227-0.597,0-0.824l0.094-0.094 C40.785,45.049,40.934,44.992,41.083,44.992 M41.083,43.992c-0.423,0-0.821,0.164-1.119,0.463l-0.094,0.094 c-0.298,0.298-0.462,0.695-0.462,1.119c0,0.423,0.164,0.821,0.463,1.119l1.838,1.838h-5.251c-0.942,0-1.708,0.766-1.708,1.708 c0,0.942,0.766,1.708,1.708,1.708h5.257l-1.845,1.845c-0.298,0.298-0.463,0.696-0.463,1.119c0,0.423,0.164,0.821,0.463,1.119 l0.094,0.094c0.298,0.298,0.696,0.463,1.119,0.463s0.821-0.164,1.119-0.463l4.681-4.681c0.316-0.316,0.477-0.748,0.451-1.2 c0.026-0.452-0.135-0.884-0.451-1.2l-4.681-4.682C41.904,44.156,41.507,43.992,41.083,43.992L41.083,43.992z"/></g><g><path fill="#00a5a5" d="M54.5 48.5A1 1 0 1 0 54.5 50.5A1 1 0 1 0 54.5 48.5Z"/><path fill="#472b29" d="M54.5,50.75c-0.689,0-1.25-0.561-1.25-1.25s0.561-1.25,1.25-1.25s1.25,0.561,1.25,1.25 S55.189,50.75,54.5,50.75z M54.5,48.75c-0.413,0-0.75,0.337-0.75,0.75s0.337,0.75,0.75,0.75s0.75-0.337,0.75-0.75 S54.913,48.75,54.5,48.75z"/></g></svg>