<svg xmlns="http://www.w3.org/2000/svg"  viewBox="0 0 100 100" width="50px" height="50px"><path fill="#f1bc19" d="M77 12A1 1 0 1 0 77 14A1 1 0 1 0 77 12Z"/><path fill="#e4e4f9" d="M50 13A37 37 0 1 0 50 87A37 37 0 1 0 50 13Z"/><path fill="#f1bc19" d="M83 11A4 4 0 1 0 83 19A4 4 0 1 0 83 11Z"/><path fill="#8889b9" d="M87 22A2 2 0 1 0 87 26A2 2 0 1 0 87 22Z"/><path fill="#fbcd59" d="M81 74A2 2 0 1 0 81 78 2 2 0 1 0 81 74zM15 59A4 4 0 1 0 15 67 4 4 0 1 0 15 59z"/><path fill="#8889b9" d="M25 85A2 2 0 1 0 25 89A2 2 0 1 0 25 85Z"/><path fill="#fff" d="M18.5 49A2.5 2.5 0 1 0 18.5 54 2.5 2.5 0 1 0 18.5 49zM79.5 32A1.5 1.5 0 1 0 79.5 35 1.5 1.5 0 1 0 79.5 32z"/><path fill="#fefdef" d="M68.333,35.521c-4.851-4.934-7.623-7.753-12.475-12.687H44.266h-5.61h-1.745H36.13 c-2.959,0-5.38,2.462-5.38,5.471v38.557c0,3.01,2.421,5.471,5.38,5.471H46.5h5.917h7.75h2.786c2.959,0,5.38-2.463,5.38-5.471 v-2.445v-8.083V49L68.333,35.521L68.333,35.521z"/><path fill="#472b29" d="M56.5 73.033H36.13c-3.353 0-6.08-2.769-6.08-6.171V28.305c0-3.403 2.728-6.172 6.08-6.172h19.729c.188 0 .368.075.499.209l12.475 12.688c.129.132.201.308.201.491L69.033 61c0 .387-.313.7-.7.7l0 0c-.387 0-.7-.313-.7-.7V35.807L55.565 23.533H36.13c-2.581 0-4.68 2.141-4.68 4.771v38.558c0 2.631 2.099 4.771 4.68 4.771H56.5c.387 0 .7.313.7.7S56.887 73.033 56.5 73.033zM62.953 73.033h-2.786c-.387 0-.7-.313-.7-.7s.313-.7.7-.7h2.786c2.581 0 4.68-2.14 4.68-4.771v-2.445c0-.387.313-.7.7-.7s.7.313.7.7v2.445C69.033 70.265 66.305 73.033 62.953 73.033z"/><path fill="#fef6aa" d="M55.5,23v7.047c0,2.999,2.407,5.453,5.349,5.453H68"/><path fill="#472b29" d="M68 36h-7.151C57.624 36 55 33.329 55 30.047V23h1v7.047C56 32.778 58.175 35 60.849 35H68V36zM55 69H37c-1.654 0-3-1.346-3-3V30c0-1.654 1.346-3 3-3h15c.276 0 .5.224.5.5S52.276 28 52 28H37c-1.103 0-2 .897-2 2v36c0 1.103.897 2 2 2h18c.276 0 .5.224.5.5S55.276 69 55 69z"/><path fill="#472b29" d="M51.584,39.083h-9.583c-0.276,0-0.5-0.224-0.5-0.5s0.224-0.5,0.5-0.5h9.583 c0.276,0,0.5,0.224,0.5,0.5S51.86,39.083,51.584,39.083z"/><path fill="#ef5390" d="M63.584,58.083h-9.583c-0.276,0-0.5-0.224-0.5-0.5s0.224-0.5,0.5-0.5h9.583 c0.276,0,0.5,0.224,0.5,0.5S63.86,58.083,63.584,58.083z"/><g><path fill="#472b29" d="M59.002,39.083h-5.167c-0.276,0-0.5-0.224-0.5-0.5s0.224-0.5,0.5-0.5h5.167 c0.276,0,0.5,0.224,0.5,0.5S59.279,39.083,59.002,39.083z"/></g><g><path fill="#472b29" d="M49.5,62.75h-10c-0.138,0-0.25-0.112-0.25-0.25s0.112-0.25,0.25-0.25h10 c0.138,0,0.25,0.112,0.25,0.25S49.638,62.75,49.5,62.75z"/></g><g><path fill="#472b29" d="M61.5,62.75h-10c-0.138,0-0.25-0.112-0.25-0.25s0.112-0.25,0.25-0.25h10 c0.138,0,0.25,0.112,0.25,0.25S61.638,62.75,61.5,62.75z"/></g><g><path fill="#88cdd7" d="M37.5 41.5H64.5V54.5H37.5z"/><path fill="#472b29" d="M64.75,54.75h-27.5v-13.5h27.5V54.75z M37.75,54.25h26.5v-12.5h-26.5V54.25z"/></g><g><path fill="#472b29" d="M62.5,45.75h-23c-0.138,0-0.25-0.112-0.25-0.25s0.112-0.25,0.25-0.25h23 c0.138,0,0.25,0.112,0.25,0.25S62.638,45.75,62.5,45.75z"/></g><g><path fill="#472b29" d="M55.5,49.75h-16c-0.138,0-0.25-0.112-0.25-0.25s0.112-0.25,0.25-0.25h16 c0.138,0,0.25,0.112,0.25,0.25S55.638,49.75,55.5,49.75z"/></g><g><path fill="#472b29" d="M62.5,49.75h-5c-0.138,0-0.25-0.112-0.25-0.25s0.112-0.25,0.25-0.25h5c0.138,0,0.25,0.112,0.25,0.25 S62.638,49.75,62.5,49.75z"/></g><g><path fill="#472b29" d="M43.5,54.75c-0.138,0-0.25-0.112-0.25-0.25v-13c0-0.138,0.112-0.25,0.25-0.25s0.25,0.112,0.25,0.25 v13C43.75,54.638,43.638,54.75,43.5,54.75z"/></g><g><path fill="#472b29" d="M53.5,54.75c-0.138,0-0.25-0.112-0.25-0.25v-13c0-0.138,0.112-0.25,0.25-0.25s0.25,0.112,0.25,0.25 v13C53.75,54.638,53.638,54.75,53.5,54.75z"/></g></svg>